<?xml version="1.0" encoding="UTF-8"?>
<svg viewBox="0 0 308 97" xmlns="http://www.w3.org/2000/svg">
<path d="m261.18 63.883-15.5-13 0.642-0.7662 15.5 13-0.642 0.7662z" clip-rule="evenodd" fill-rule="evenodd"/>
<path d="m236.15 70.859-16.5-16 0.696-0.7179 16.5 16-0.696 0.7179z" clip-rule="evenodd" fill-rule="evenodd"/>
<path d="m264.5 75.5 11 10.5-12-9-7.5-4-12.5-8.5 21 11z"/>
<path d="m243.22 64.914 0.513-0.8564 21.062 11.033 11.051 10.549-0.645 0.7617-11.969-8.9769-7.49-3.9946-12.522-8.515zm7.766 4.0717 5.274 3.5862 7.51 4.0055 5.296 3.972-4.859-4.6386-13.221-6.9251z" clip-rule="evenodd" fill-rule="evenodd"/>
<path d="m236.7 60.904-13-9.5 0.59-0.8074 13 9.5-0.59 0.8074z" clip-rule="evenodd" fill-rule="evenodd"/>
<path d="m248 82.5 6.5 2-16-12 9.5 10z"/>
<path d="m296 50.5c-2.4-1.6-7.333-3.3333-9.5-4l-1 2 9 4 5.5 5.5-1 7.5-13.5-10.5 12.5 15s-1.5 4.5-1 4 3.6-5.1 4-5.5 1.833-5.5 2.5-8c-1.5-2.6667-5.1-8.4-7.5-10z"/>
<path d="m286.24 45.898 0.405 0.1245c1.095 0.3368 2.882 0.9412 4.7 1.6632 1.809 0.7186 3.684 1.5677 4.93 2.3987 0.656 0.4372 1.366 1.1353 2.074 1.9506 0.713 0.8211 1.445 1.7856 2.145 2.7772 1.399 1.983 2.683 4.0978 3.44 5.4431l0.1 0.1773-0.053 0.1966c-0.334 1.2531-0.86 3.1584-1.354 4.8025-0.247 0.8213-0.487 1.5828-0.692 2.1669-0.102 0.2913-0.197 0.5456-0.283 0.7438-0.043 0.0988-0.086 0.1905-0.128 0.2688-0.037 0.0682-0.094 0.1646-0.172 0.2428 0-4e-4 -2e-3 0.0011-5e-3 0.0053-4e-3 4e-3 -9e-3 0.0096-0.015 0.0169-0.013 0.0149-0.029 0.0345-0.049 0.0595-0.041 0.0499-0.091 0.1154-0.151 0.1957-0.121 0.1605-0.274 0.3713-0.451 0.6179-0.314 0.4384-0.696 0.9818-1.089 1.5414-0.049 0.0697-0.098 0.1397-0.147 0.2098-0.444 0.6308-0.893 1.2679-1.262 1.7788-0.355 0.4913-0.671 0.9142-0.831 1.0747-0.033 0.0326-0.088 0.083-0.164 0.1225-0.074 0.0384-0.232 0.0983-0.419 0.0357-0.193-0.0641-0.283-0.2115-0.319-0.2938-0.036-0.0816-0.047-0.1573-0.051-0.201-0.014-0.158 0.021-0.3616 0.054-0.5291 0.075-0.3753 0.221-0.9096 0.378-1.4415 0.158-0.5367 0.331-1.0878 0.464-1.5038 0.055-0.1712 0.104-0.3198 0.141-0.4356l-12.322-14.787 0.691-0.7148 12.813 9.9653 0.852-6.3918-5.26-5.2596-9.393-4.1748 1.423-2.8468zm12.232 24.26-0.016 0.0494-0.046 0.1407c-0.04 0.1212-0.096 0.294-0.162 0.4998-0.101 0.3137-0.224 0.703-0.345 1.1029 0.232-0.3277 0.478-0.6768 0.723-1.0259 0.05-0.0704 0.099-0.1408 0.149-0.211 0.392-0.5584 0.777-1.1053 1.093-1.5473 0.178-0.2487 0.337-0.4668 0.464-0.6364 0.11-0.1469 0.217-0.2838 0.295-0.3664 4e-3 -0.0056 0.01-0.0156 0.019-0.0313 0.022-0.0415 0.052-0.1029 0.088-0.1867 0.072-0.167 0.159-0.3963 0.258-0.6785 0.197-0.5628 0.432-1.3074 0.677-2.1237 0.465-1.5472 0.96-3.3317 1.293-4.5754-0.754-1.3259-1.969-3.3147-3.285-5.1801-0.688-0.975-1.399-1.9105-2.083-2.6978-0.689-0.7931-1.329-1.4116-1.873-1.7744-1.154-0.769-2.946-1.5865-4.745-2.3013-1.581-0.628-3.14-1.1659-4.221-1.5103l-0.576 1.1512 8.607 3.8252 5.74 5.7404-1.147 8.6082-10.531-8.1904 9.712 11.655-0.088 0.2642zm-60.336 2.6863 0.662-0.7444 16 12-0.447 0.8779-6.625-2.0385-9.59-10.095zm4.826 3.6286 5.308 5.5876 3.632 1.1176-8.94-6.7052z" clip-rule="evenodd" fill-rule="evenodd"/>
<path d="m288 32 15-10v2l-3 3-12 5z"/>
<path d="m303.5 21.066v3.1414l-3.216 3.2164-12.092 5.038-0.469-0.8775 15.777-10.518zm-10.93 8.4883 7.146-2.9775 2.784-2.7836v-0.8586l-9.93 6.6197z" clip-rule="evenodd" fill-rule="evenodd"/>
<path d="m266.5 23-6.5 4 34.5-14.5-28 10.5z"/>
<path d="m266.72 23.451-0.932 0.5733 4.945-2.0782-4.013 1.5049zm27.603-11.419 0.37 0.9291-34.5 14.5-0.456-0.8867 6.541-4.0254 28.045-10.517z" clip-rule="evenodd" fill-rule="evenodd"/>
<path d="m230 44.5 22.5-10.5v2.5l-22.5 8z"/>
<path d="m253 33.215v3.638l-22.832 8.1182-0.379-0.9242 23.211-10.832zm-13.258 7.2907 12.258-4.3585v-1.362l-12.258 5.7205z" clip-rule="evenodd" fill-rule="evenodd"/>
<path d="m254 26.5-25.5 4-2 2.5 27.5-6.5z"/>
<path d="m272 10-40.5 12 21-4.5 19.5-7.5z"/>
<path d="m244.09 18.79 8.263-1.7706 7.673-2.9511-15.936 4.7217zm-12.736 2.7307 40.5-12 0.321 0.9461-19.536 7.514-21.038 4.5082-0.247-0.9683zm-2.589 9.4433-0.973 1.2159 13.375-3.1613-12.402 1.9454zm25.153-4.9579 0.193 0.9806-28.912 6.8336 3.028-3.7841 25.691-4.0301z" clip-rule="evenodd" fill-rule="evenodd"/>
<path d="m276 9 8.5-5.5h3.5l-12 5.5z"/>
<path d="m284.35 3h3.648l0.208 0.95453-12 5.5-0.48-0.87432 8.624-5.5802zm0.296 1-2.578 1.6679 3.639-1.6679h-1.061z" clip-rule="evenodd" fill-rule="evenodd"/>
<path d="m257.5 57.5c-3.6-2.4-6.5-8.6667-7.5-11.5l3.5-1c0 2 1.723 5.9366 4 9 4 5.3803 11 4.5 17.5 2 5.2-2 10.667-10.167 12.5-13.5-0.5 3.3333-2.9 11-8.5 15-7 5-17 3-21.5 0z"/>
<path d="m282.13 49.431c2.223-2.6813 4.031-5.5296 4.934-7.1718l0.932 0.3152c-0.257 1.7151-0.996 4.5133-2.381 7.3925-1.384 2.8779-3.43 5.8744-6.322 7.9402-3.619 2.585-7.993 3.3471-12.01 3.0921-4.012-0.2547-7.724-1.5271-10.058-3.083-1.897-1.2646-3.569-3.5122-4.88-5.7509-1.317-2.251-2.305-4.5553-2.814-5.9987l-0.177-0.5012 4.648-1.3281v0.6629c0 0.892 0.395 2.2974 1.103 3.899 0.701 1.5846 1.683 3.3022 2.798 4.8027 1.894 2.5468 4.491 3.6194 7.434 3.7539 2.964 0.1355 6.264-0.6833 9.486-1.9223 2.472-0.9509 5.069-3.4045 7.307-6.1025zm0.769 0.6384c-2.254 2.7187-4.99 5.3484-7.718 6.3975-3.278 1.2609-6.728 2.1324-9.889 1.9879-3.182-0.1454-6.085-1.3229-8.191-4.1563-1.162-1.5629-2.181-3.3453-2.91-4.9948-0.591-1.3345-1.01-2.6226-1.144-3.6536l-2.391 0.6831c0.528 1.3943 1.414 3.3823 2.553 5.3269 1.289 2.203 2.867 4.2887 4.57 5.4241 2.166 1.444 5.704 2.6717 9.567 2.917 3.858 0.245 7.984-0.4929 11.365-2.9079 2.708-1.9342 4.662-4.7711 6.003-7.5598 0.689-1.4333 1.212-2.8439 1.59-4.0962-0.931 1.4235-2.097 3.0554-3.405 4.6321z" clip-rule="evenodd" fill-rule="evenodd"/>
<path d="m252 34.5c-2.068 2.9538-2.667 9.3333-2 12h3c1.5-8.5 8.305-12.303 10.5-13.5 5.5-3 9.5-4 15-3.5 6.772 0.6156 8.833 6.6667 9 10v-4.5l-0.5-3.5c-2.333-2.8333-9.2-8.2-18-7-8 1.0909-13.5 5-17 10z"/>
<path d="m286.52 31.711c-2.352-2.7815-9-7.8692-17.457-6.7159-7.858 1.0715-13.236 4.902-16.658 9.7913-0.967 1.3801-1.619 3.6198-1.94 5.891-0.291 2.0538-0.298 4.0415-0.066 5.3223h2.181c1.688-8.4577 8.505-12.255 10.676-13.439 5.568-3.0376 9.667-4.0697 15.284-3.559 3.55 0.3227 5.886 2.0802 7.344 4.195 0.451 0.6546 0.817 1.3426 1.111 2.0323v-0.1939l-0.475-3.3242zm-17.593-7.7067c9.034-1.2318 16.057 4.2665 18.454 7.1775l0.089 0.1083 0.525 3.6741v4.5355l-0.999 0.025c-0.08-1.5939-0.616-3.8454-1.936-5.7604-1.308-1.8979-3.388-3.4737-6.61-3.7667-5.383-0.4893-9.284 0.4786-14.716 3.441-2.184 1.1914-8.79 4.8956-10.247 13.148l-0.073 0.4131h-3.809l-0.095-0.3787c-0.356-1.4231-0.364-3.7579-0.036-6.0836 0.329-2.3238 1.01-4.7508 2.111-6.3244 3.578-5.1107 9.2-9.0984 17.342-10.209z" clip-rule="evenodd" fill-rule="evenodd"/>
<path d="m302.06 11.989c-1.716-3.0369-3.824-5.9477-5.058-7.4894l-0.5-1.5c-0.634-0.92504-0.82-1.0945 0.5-1 1 0.33333 3.3 1.9 4.5 5.5 0.234 0.70183 0.415 2.3272 0.558 4.4894 1.067 1.8876 1.982 3.824 2.442 5.5106 1.2 4.4 2.167 12.5 2.5 16 0 0-3.5 5.5-4 5.5-0.403 0-0.351-18.082-0.942-27.011z"/>
<path d="m296.22 1.4892c0.209-0.02245 0.486-0.01133 0.814 0.01212l0.062 0.00449 0.06 0.01989c1.163 0.38754 3.571 2.0808 4.816 5.8162 0.135 0.40326 0.243 1.0295 0.335 1.7952 0.091 0.74975 0.17 1.667 0.24 2.7057 1.051 1.8711 1.966 3.8108 2.433 5.5256 1.213 4.4466 2.183 12.586 2.516 16.084l0.016 0.171-0.092 0.1448-0.422-0.2684 0.422 0.2684-0.04 0.0627c-0.026 0.0406-0.064 0.1001-0.113 0.1756-0.097 0.1511-0.236 0.3668-0.405 0.6256-0.337 0.5173-0.792 1.208-1.263 1.8994-0.471 0.6897-0.962 1.387-1.369 1.9147-0.203 0.2623-0.393 0.4933-0.555 0.6625-0.08 0.0835-0.164 0.1642-0.248 0.2277-0.041 0.0317-0.094 0.0674-0.154 0.0968-0.055 0.0269-0.152 0.0666-0.275 0.0666-0.259 0-0.395-0.1792-0.429-0.2275-0.045-0.0653-0.069-0.1295-0.081-0.1637-0.025-0.0748-0.042-0.1593-0.054-0.2338-0.025-0.1568-0.047-0.373-0.066-0.6321-0.04-0.5228-0.073-1.2727-0.104-2.1911-0.06-1.8113-0.109-4.3061-0.164-7.0725l-2e-3 -0.1265c-0.111-5.5933-0.244-12.266-0.534-16.716-1.69-2.973-3.749-5.8152-4.956-7.324l-0.056-0.06963-0.506-1.5177c-0.017-0.02415-0.033-0.04813-0.05-0.07188-0.116-0.16934-0.225-0.32717-0.303-0.45719-0.049-0.08281-0.101-0.17865-0.136-0.27886-0.033-0.0944-0.072-0.25193-0.025-0.42888 0.055-0.20356 0.196-0.33262 0.334-0.40288 0.121-0.06194 0.251-0.08507 0.354-0.09617zm5.163 8.39c-0.022-0.21934-0.045-0.427-0.068-0.62217-0.092-0.76297-0.192-1.3003-0.291-1.5989-1.13-3.3894-3.252-4.8413-4.128-5.164-0.051-0.00346-0.1-0.00642-0.145-0.00885 0.019 0.02863 0.04 0.0581 0.061 0.08891 0.031 0.04442 0.063 0.09162 0.099 0.14312l0.039 0.05793 0.494 1.4824c0.992 1.2457 2.505 3.3158 3.939 5.6216zm1.301 4.3705c0.209 4.3059 0.32 9.846 0.413 14.583l3e-3 0.1197c0.055 2.7718 0.104 5.2612 0.164 7.0658 0.026 0.7903 0.054 1.4438 0.086 1.93 0.028-0.0365 0.058-0.0745 0.088-0.1137 0.389-0.5036 0.867-1.1813 1.334-1.8666 0.467-0.6836 0.918-1.3679 1.252-1.8819 0.168-0.2568 0.306-0.4708 0.402-0.6205 0.021-0.0332 0.041-0.0632 0.058-0.0899-0.348-3.5875-1.3-11.461-2.468-15.744-0.285-1.0431-0.753-2.1956-1.332-3.3819z" clip-rule="evenodd" fill-rule="evenodd"/>
<path d="m236.5 45c-6-0.4-16.167-0.1667-19.5 0l-5.5 4 40 0.5v-2.5c-3-0.5-9-1.6-15-2z"/>
<path d="m217.17 45.492-4.161 3.0267 37.988 0.4749v-1.5707c-0.227-0.0383-0.467-0.0792-0.72-0.1222-3.231-0.5495-8.523-1.4493-13.813-1.802-5.885-0.3923-15.823-0.1723-19.294-0.0067zm-0.198-0.9915c3.341-0.167 13.53-0.4015 19.558 5e-4 5.346 0.3563 10.69 1.2653 13.917 1.8143 0.414 0.0703 0.793 0.1348 1.132 0.1914l0.418 0.0696v3.4299l-42.012-0.5252 6.838-4.973 0.149-0.0075z" clip-rule="evenodd" fill-rule="evenodd"/>
<path d="m211.5 60.5c0.036 0 0.123 0.0261 0.254 0.0768 1.579 0.3557 9.587 1.8704 12.746 2.9232 4.5 1.5 9.5 5.5 13 10 2.8 3.6 2.167 11.5 1 14 7-2 13-2.95 22-2.5 4.395 0.2197 17.5 1 28.5 2.5 0 0 6.5-10.5 7-11s-0.3 5.7-1.5 8.5l-4.5 10.5-62-1c0.333-0.1667 1.3-1.6 2.5-6 1.5-5.5 1-8.5-4-16.5-3.714-5.9425-13.032-10.764-14.746-11.423-0.22-0.0497-0.315-0.0768-0.254-0.0768z"/>
<path d="m211.9 60.097c-0.059-0.022-0.114-0.0412-0.164-0.0561-0.04-0.012-0.135-0.0406-0.235-0.0406-9e-3 -1e-4 -0.08-0.0011-0.157 0.0217-0.025 0.0074-0.074 0.0236-0.128 0.0578-0.052 0.0329-0.149 0.1083-0.201 0.2479-0.122 0.3235 0.12 0.5366 0.137 0.5514v0c0.051 0.0458 0.101 0.0706 0.115 0.0774 0.021 0.0105 0.04 0.0179 0.051 0.0222 0.024 0.0089 0.046 0.0159 0.062 0.0207 0.055 0.0163 0.135 0.0358 0.229 0.0571 0.849 0.3346 3.541 1.675 6.489 3.6653 2.991 2.0192 6.178 4.6627 7.979 7.5435 2.496 3.9939 3.832 6.684 4.374 9.0349 0.537 2.3253 0.306 4.3594-0.432 7.0685-0.596 2.1829-1.129 3.6124-1.546 4.5078-0.209 0.4482-0.385 0.7542-0.521 0.9509-0.068 0.0984-0.121 0.1633-0.159 0.203-0.025 0.0256-0.037 0.0347-0.037 0.0347 0 1e-4 7e-3 -5e-3 0.021-0.012l0.216 0.9471 62.335 1.0055 4.633-10.808c0.625-1.4594 1.132-3.76 1.421-5.6072 0.146-0.9278 0.239-1.764 0.264-2.3452 0.012-0.2797 0.01-0.5415-0.025-0.7291-9e-3 -0.0501-0.024-0.1106-0.048-0.1718-0.021-0.054-0.067-0.1533-0.164-0.2379-0.119-0.1036-0.289-0.1614-0.471-0.122-0.148 0.0321-0.244 0.1165-0.291 0.1627-0.065 0.0649-0.142 0.1695-0.213 0.2675-0.079 0.1104-0.178 0.2536-0.292 0.4229-0.228 0.3392-0.526 0.7936-0.866 1.3219-0.681 1.0572-1.542 2.4186-2.386 3.7628-0.844 1.3446-1.673 2.6733-2.29 3.6659-0.309 0.4963-0.565 0.9086-0.744 1.1968l-0.109 0.1767c-10.954-1.4745-23.866-2.2426-28.221-2.4604-8.654-0.4327-14.566 0.422-21.219 2.2539 0.437-1.4671 0.719-3.6317 0.681-5.8504-0.046-2.7671-0.59-5.7793-2.092-7.7111-3.54-4.5511-8.616-8.6269-13.237-10.167-2.488-0.8292-7.946-1.9415-10.954-2.5546-0.821-0.1673-1.459-0.2974-1.805-0.3744zm3.424 1.7273c1.01 0.575 2.154 1.2722 3.334 2.0687 3.025 2.042 6.353 4.7806 8.267 7.8423 2.504 4.0062 3.918 6.816 4.501 9.3401 0.588 2.5497 0.319 4.7656-0.443 7.5565-0.604 2.2171-1.155 3.7043-1.604 4.6672-0.13 0.279-0.253 0.5169-0.368 0.7174l60.663 0.9785 4.367-10.192c0.575-1.3406 1.068-3.54 1.353-5.3678 0.085-0.537 0.149-1.034 0.193-1.4598-0.143 0.2189-0.301 0.4622-0.47 0.7251-0.678 1.0522-1.537 2.4096-2.38 3.7529-0.843 1.3429-1.671 2.6704-2.288 3.6623-0.308 0.4959-0.564 0.9078-0.743 1.1957l-0.279 0.4499-1e-3 0.0014c0 1e-4 0 5e-4 -0.425-0.2627l0.425 0.2627-0.171 0.2766-0.322-0.0439c-10.978-1.497-24.066-2.2765-28.457-2.496-8.94-0.447-14.885 0.4948-21.838 2.4814l-1.054 0.3011 0.464-0.9933c0.537-1.1514 0.986-3.6642 0.941-6.3677-0.046-2.7079-0.585-5.4457-1.883-7.1139-3.46-4.4489-8.384-8.3731-12.763-9.8327-2.005-0.6682-5.989-1.5249-9.019-2.1503z" clip-rule="evenodd" fill-rule="evenodd"/>
<path d="m262 1c-9.2 0-26.167 0.66667-33.5 1v7c9.333-1.3333 5.5-3 33.5-4.5 4.412-0.23635 25 0 35 0l-0.5-2.5c-8-0.33333-25.3-1-34.5-1z"/>
<path d="m229 2.4779v5.9426c2.463-0.3777 3.965-0.78497 5.527-1.2087 3.819-1.0355 8.001-2.1694 27.446-3.2111 3.03-0.16233 13.638-0.1029 23.231-0.04915 4.151 0.02325 8.111 0.04544 11.186 0.04815l-0.303-1.5165c-8.163-0.33835-25.047-0.98326-34.087-0.98326-8.993 0-25.431 0.63828-33 0.97793zm-0.523-0.97741c7.333-0.3333 24.31-1.0005 33.523-1.0005 9.212 0 26.523 0.66721 34.521 1.0004l0.392 0.01636 0.697 3.4832h-0.61c-3.181 0-7.423-0.02378-11.872-0.04872-9.57-0.05366-20.102-0.1127-23.101 0.048-19.347 1.0364-23.407 2.1407-27.195 3.1708-1.694 0.46072-3.333 0.9066-6.261 1.3249l-0.571 0.08152v-8.0543l0.477-0.02169z" clip-rule="evenodd" fill-rule="evenodd"/>
<path d="m224 20c-2.8 8.4-20.5 36.5-20 36.5s7-2.5 7-2.5c4.5-4 17.692-18.5 20-28.5 1.2-5.2 0.5-17.833 0-23.5h-4.5c0 3.6667 0.3 9.6-2.5 18z"/>
<path d="m226 1.5h5.458l0.04 0.45605c0.251 2.8426 0.552 7.4292 0.639 11.959 0.088 4.5115-0.034 9.0287-0.65 11.697-1.18 5.1141-5.116 11.313-9.269 16.693-4.164 5.3949-8.608 10.044-10.886 12.068l-0.068 0.0604-0.084 0.0326-2e-3 4e-4 -0.28 0.1073c-0.179 0.0685-0.435 0.1663-0.744 0.2837-0.618 0.2346-1.447 0.5476-2.293 0.8608-0.845 0.3129-1.708 0.6269-2.393 0.8632-0.342 0.1179-0.644 0.2179-0.879 0.289-0.116 0.0354-0.222 0.0652-0.309 0.0866-0.071 0.0172-0.181 0.0423-0.28 0.0423-0.077 0-0.172-0.0175-0.266-0.0746-0.094-0.0574-0.154-0.1357-0.19-0.2073-0.062-0.1243-0.055-0.2385-0.053-0.2734 6e-3 -0.0854 0.032-0.1597 0.043-0.1924 0.03-0.0833 0.077-0.1851 0.129-0.2917 0.109-0.2205 0.281-0.5362 0.502-0.9296 0.445-0.7899 1.109-1.9246 1.925-3.3071 0.483-0.8184 1.02-1.7245 1.598-2.6991 1.376-2.3223 2.984-5.0338 4.643-7.8768 2.355-4.0358 4.811-8.3297 6.852-12.137 2.047-3.8186 3.658-7.1147 4.343-9.1688 2.538-7.6157 2.502-13.171 2.478-16.871-2e-3 -0.33932-4e-3 -0.66304-4e-3 -0.97132v-0.5zm-15.265 52.066c2.244-2.0078 6.599-6.5702 10.691-11.872 4.145-5.3699 7.959-11.421 9.087-16.307 0.584-2.5316 0.712-6.931 0.625-11.453-0.083-4.2683-0.356-8.5906-0.597-11.435h-3.539c0 0.15279 1e-3 0.30923 2e-3 0.46935 0.025 3.7176 0.062 9.4132-2.53 17.189-0.715 2.1459-2.366 5.5123-4.41 9.325-2.049 3.8236-4.512 8.1297-6.87 12.169-1.66 2.8459-3.271 5.5626-4.648 7.8858-0.577 0.9738-1.113 1.8785-1.595 2.6945-0.817 1.3832-1.476 2.5094-1.914 3.2891-0.037 0.065-0.072 0.1273-0.105 0.187 0.067-0.0229 0.137-0.0468 0.21-0.0717 0.674-0.2325 1.529-0.5435 2.372-0.8556 0.842-0.3118 1.669-0.6238 2.285-0.8579 0.308-0.117 0.564-0.2145 0.742-0.2828l0.194-0.0744z" clip-rule="evenodd" fill-rule="evenodd"/>
<path d="m80.5 57c-1-6 0-11.667 0-14h8.5c-1 6 0.2142 19.964 1 23.5 1 4.5 4.1666 12.833 6 17l-8-0.5c-1.1667-3.1667-3.7-10-4.5-12-1-2.5-2.0001-8-3-14z"/>
<path d="m80 42.5h9.5902l-0.097 0.5822c-0.4898 2.9387-0.4405 7.8791-0.1638 12.562 0.2766 4.6798 0.7751 9.0208 1.1587 10.747 0.9892 4.4513 4.1398 12.749 5.9695 16.907l0.3308 0.7516-9.1449-0.5715-0.1127-0.3058c-1.168-3.1702-3.6983-9.9953-4.4951-11.987-0.5183-1.2958-1.0255-3.3353-1.5255-5.7727-0.502-2.4472-1.0033-5.33-1.5034-8.3308-0.5083-3.0496-0.5071-6.0061-0.3812-8.4826 0.0595-1.1695 0.147-2.2357 0.2223-3.1523 0.0044-0.0538 0.0088-0.1072 0.0131-0.16 0.0787-0.9603 0.139-1.7289 0.139-2.2873v-0.5zm0.9884 1c-0.022 0.5289-0.0728 1.1623-0.1307 1.869-0.0043 0.0521-0.0086 0.1046-0.0129 0.1576-0.0754 0.9181-0.1618 1.9703-0.2205 3.1238-0.124 2.4402-0.1228 5.317 0.3689 8.2674 0.4998 2.9992 0.9986 5.8664 1.4966 8.2942 0.5 2.4376 0.9927 4.3981 1.4744 5.6023 0.7782 1.9456 3.1833 8.4284 4.3922 11.707l6.8602 0.4288c-1.8661-4.363-4.7513-12.052-5.7047-16.342-0.4022-1.8097-0.9037-6.2187-1.1807-10.905-0.2599-4.3969-0.3267-9.1102 0.0884-12.204h-7.4312z" clip-rule="evenodd" fill-rule="evenodd"/>
<path d="m104.44 61c-0.944-8 0-15.667 0-18h10.556c-1 6-2.611 13-0.5 22.5 1 4.5 5.667 13.833 7.5 18h-10c-2.444-2.5-3.7-7-4.5-9-1-2.5-2.111-5.5-3.056-13.5z"/>
<path d="m103.94 42.5h11.646l-0.097 0.5822c-0.095 0.573-0.196 1.154-0.299 1.7443-0.973 5.6112-2.094 12.07-0.206 20.565 0.487 2.1931 1.882 5.6063 3.406 9.0302 0.759 1.7043 1.544 3.3989 2.255 4.9302 0.046 0.0996 0.092 0.1985 0.138 0.2967 0.654 1.4093 1.24 2.6708 1.671 3.65l0.308 0.7014h-10.976l-0.148-0.1504c-1.288-1.3176-2.242-3.1368-2.969-4.841-0.365-0.8567-0.677-1.6952-0.946-2.4401-0.069-0.1891-0.134-0.3711-0.197-0.5454-0.186-0.5194-0.348-0.9708-0.494-1.3374-1.017-2.5418-2.139-5.5846-3.088-13.627-0.723-6.1237-0.346-12.107-0.125-15.596 0.068-1.0867 0.121-1.9314 0.121-2.4628v-0.5zm0.991 1c-0.02 0.5605-0.065 1.2856-0.12 2.1459-0.221 3.5144-0.584 9.2839 0.126 15.296 0.939 7.9575 2.04 10.915 3.023 13.373 0.154 0.3849 0.325 0.8614 0.513 1.3866 0.062 0.1712 0.125 0.3475 0.19 0.5275 0.267 0.7395 0.572 1.5572 0.926 2.388 0.683 1.6012 1.534 3.2115 2.621 4.3836h9.015c-0.381-0.8442-0.844-1.8411-1.351-2.9345-0.045-0.0968-0.091-0.1942-0.136-0.2924-0.711-1.5312-1.499-3.2324-2.261-4.9448-1.518-3.4094-2.956-6.9129-3.469-9.2198-1.933-8.6956-0.779-15.334 0.196-20.95 0.068-0.3911 0.135-0.7773 0.2-1.1588h-9.473z" clip-rule="evenodd" fill-rule="evenodd"/>
<path d="m69 76-1-61h4.5l1.5 61h-5z"/>
<path d="m67.492 14.5h5.4961l1.5246 62h-6.0043l-1.0164-62zm1.0166 1 0.9836 60h3.9956l-1.4754-60h-3.5038z" clip-rule="evenodd" fill-rule="evenodd"/>
<path d="m9.5 49-8-0.5c8.5-11.5 23-19.5 28.5-23 9.4286-6 26-12 30.5-13 1.7463-0.3881 8.6667-1.3333 12-1.5v5.5c-19 2-28.5 8-37.5 12.5-6 3-16.5 11.5-25.5 20z"/>
<path d="m73 10.474v6.4757l-0.4477 0.0472c-16.58 1.7452-25.864 6.5432-33.981 10.738-1.1332 0.5857-2.2437 1.1596-3.3481 1.7118-5.9276 2.9638-16.381 11.417-25.38 19.916l-0.15783 0.1491-9.1337-0.5709 0.54615-0.7389c7.5072-10.157 19.648-17.6 26.211-21.624 0.929-0.5695 1.7463-1.0706 2.4229-1.5011 4.7526-3.0244 11.286-6.0379 17.18-8.4168 5.8892-2.3772 11.188-4.1402 13.48-4.6495 1.7774-0.395 8.7261-1.3434 12.084-1.5113l0.525-0.0262zm-1 1.0556c-3.464 0.2281-9.7626 1.0961-11.392 1.4581-2.208 0.4907-7.4445 2.2277-13.323 4.6006-5.8741 2.371-12.341 5.3576-17.017 8.3331-0.6915 0.4401-1.5206 0.9488-2.4586 1.5243-6.4196 3.9386-17.94 11.007-25.35 20.613l6.855 0.4284c8.9658-8.4512 19.425-16.916 25.462-19.935 1.097-0.5485 2.2029-1.1202 3.3339-1.7048 8.0599-4.1664 17.396-8.9927 33.89-10.797v-4.5208z" clip-rule="evenodd" fill-rule="evenodd"/>
<path d="m9.5 50-8 0.5c2.5 11 11.5 18.5 19 23 10.833 6.5 32.5 9 53.5 7v-4.1217c-15 0-26.544-3.9396-36-7.3783-9-3.2727-22.5-12.5-28.5-19z"/>
<path d="m43.375 80.684c9.4355 1.1925 20.139 1.3173 30.673 0.3142l0.4526-0.0431v-5.0764h-0.5c-14.908 0-26.383-3.9134-35.829-7.3482-4.4465-1.6169-10.034-4.7176-15.267-8.2349s-10.073-7.4243-13.037-10.634l-0.16128-0.1748-8.824 0.5515 0.13026 0.5732c2.5462 11.204 11.695 18.797 19.23 23.318 5.5032 3.3019 13.708 5.5638 23.132 6.7549zm0.1254-0.9921c-9.3673-1.1839-17.413-3.4221-22.743-6.6203-7.3319-4.3991-16.002-11.623-18.633-22.109l7.1705-0.4481c3.0477 3.2547 7.8775 7.1343 13.051 10.611 5.2665 3.5395 10.929 6.6888 15.483 8.3447 9.3624 3.4045 20.822 7.3206 35.671 7.4069v3.1679c-10.32 0.9506-20.778 0.8122-30-0.3532z" clip-rule="evenodd" fill-rule="evenodd"/>
<path d="m46 43c0 2.7614-2.2386 5-5 5s-5-2.2386-5-5 2.2386-5 5-5 5 2.2386 5 5z"/>
<path d="m45.071 32.995c-2.7184 0.3883-4.6726 1.4564-5.2707 1.905l-0.6-0.8c0.7352-0.5514 2.8477-1.6833 5.7293-2.095l0.1414 0.99z" clip-rule="evenodd" fill-rule="evenodd"/>
<path d="m222 41.5-11 12.5-110.5-8.5-28-1v-5.5l149.5 2.5z"/>
<path d="m72 38.492 151.09 2.5266-11.88 13.5-110.74-8.5184-28.472-1.0168v-6.4909zm1 1.0168v4.5091l27.528 0.9832 110.26 8.4816 10.12-11.5-147.91-2.4735z" clip-rule="evenodd" fill-rule="evenodd"/>
<path d="m286.29 46.045 16.5-7.5 0.414 0.9104-16.5 7.5-0.414-0.9104z" clip-rule="evenodd" fill-rule="evenodd"/>
<path d="m279.5 75.5 10.5 9.5v0.5l-24-19 13.5 9z"/>
<path d="m265.69 66.892 0.587-0.808 13.531 9.0205 10.692 9.6736v1.7555l-24.81-19.642zm10.219 6.815 6.911 5.4713-3.628-3.2827-3.283-2.1886z" clip-rule="evenodd" fill-rule="evenodd"/>
<path d="m295.14 76.843-16.5-17.5 0.728-0.686 16.5 17.5-0.728 0.686z" clip-rule="evenodd" fill-rule="evenodd"/>
</svg>
