<?xml version="1.0" standalone="no"?>
<!DOCTYPE svg PUBLIC "-//W3C//DTD SVG 20010904//EN"
 "http://www.w3.org/TR/2001/REC-SVG-20010904/DTD/svg10.dtd">
<svg version="1.0" xmlns="http://www.w3.org/2000/svg"
 width="2464.000000pt" height="2464.000000pt" viewBox="0 0 2464.000000 2464.000000"
 preserveAspectRatio="xMidYMid meet">
<metadata>
Created by potrace 1.14, written by Peter Selinger 2001-2017
</metadata>
<g transform="translate(0.000000,2464.000000) scale(0.100000,-0.100000)"
fill="#000000" stroke="none">
<path d="M20727 16164 c-3 -4 -115 -8 -249 -10 -244 -3 -401 -7 -773 -20 -110
-4 -248 -7 -307 -8 -60 0 -108 -3 -108 -6 0 -3 -51 -5 -113 -6 -105 -1 -330
-9 -547 -19 -113 -6 -389 -16 -410 -16 -100 3 -123 1 -135 -9 -8 -7 -12 -17
-8 -23 9 -15 10 -60 1 -79 -5 -9 -4 -19 2 -23 6 -3 6 -15 0 -30 -6 -15 -6 -27
0 -30 5 -3 7 -12 4 -19 -9 -23 -10 -97 -2 -102 5 -3 6 -10 2 -15 -3 -6 -8 -56
-9 -112 -2 -56 -6 -124 -9 -152 -13 -125 -18 -171 -22 -190 -2 -10 -6 -37 -9
-60 -5 -37 -18 -106 -31 -165 -3 -14 -7 -36 -10 -49 -3 -13 -12 -51 -20 -85
-8 -34 -16 -68 -18 -77 -15 -62 -75 -250 -103 -324 -33 -85 -278 -594 -292
-605 -3 -3 -19 -32 -36 -65 -16 -33 -32 -62 -35 -65 -3 -3 -20 -34 -39 -70
-36 -71 -39 -76 -164 -299 -48 -84 -87 -157 -87 -162 0 -5 -4 -9 -10 -9 -5 0
-10 -4 -10 -9 0 -13 -82 -155 -92 -159 -4 -2 -8 -8 -8 -14 0 -5 -18 -40 -40
-77 l-41 -68 -162 3 c-89 1 -331 5 -537 9 -206 4 -482 8 -612 10 -130 1 -241
6 -247 9 -5 4 -12 2 -16 -3 -3 -7 -15 -7 -30 -1 -15 6 -27 6 -30 -1 -4 -5 -11
-6 -17 -3 -6 4 -124 8 -262 10 -138 1 -397 5 -576 8 -704 13 -964 18 -1193 20
-130 2 -240 6 -243 9 -4 4 -14 2 -24 -3 -10 -5 -19 -7 -22 -5 -3 3 -148 7
-324 10 -175 3 -445 8 -599 10 -154 3 -426 7 -605 10 -179 3 -453 7 -610 10
-157 3 -409 7 -560 10 -151 2 -423 7 -605 10 -181 3 -460 7 -620 10 -159 3
-416 7 -570 10 -154 3 -426 7 -605 10 -432 7 -778 12 -1220 20 -201 4 -465 8
-588 9 -122 2 -225 6 -229 9 -3 4 -8 49 -9 100 -1 50 -4 128 -5 173 -1 44 1
86 5 92 4 7 4 12 -1 12 -4 0 -9 48 -9 108 -1 108 -11 491 -20 807 -2 94 -6
288 -9 432 -2 145 -6 267 -10 273 -3 5 -3 10 2 10 8 0 8 139 -1 147 -3 3 -1
15 4 28 10 25 -14 70 -32 59 -5 -3 -42 -8 -81 -10 -40 -2 -92 -5 -117 -8 -25
-3 -72 -8 -105 -11 -33 -3 -71 -7 -85 -10 -36 -5 -130 -17 -165 -20 -16 -2
-47 -5 -67 -9 -52 -8 -105 -16 -153 -21 -22 -3 -51 -7 -65 -10 -14 -3 -40 -7
-58 -10 -18 -3 -61 -12 -95 -21 -34 -8 -69 -16 -77 -18 -33 -8 -136 -38 -150
-43 -8 -4 -17 -7 -20 -8 -12 -3 -86 -27 -100 -32 -8 -4 -18 -7 -22 -8 -5 -2
-9 -3 -10 -5 -2 -1 -10 -3 -18 -5 -17 -3 -214 -72 -245 -85 -18 -7 -52 -20
-65 -25 -3 -1 -14 -5 -25 -9 -180 -70 -311 -121 -315 -122 -6 -1 -11 -3 -216
-89 -88 -37 -192 -82 -232 -101 -40 -19 -75 -34 -77 -34 -3 0 -80 -37 -172
-82 -93 -45 -170 -82 -173 -83 -3 0 -23 -10 -45 -21 -116 -60 -171 -90 -176
-97 -3 -5 -12 -9 -20 -10 -8 -2 -25 -10 -39 -20 -13 -9 -30 -17 -37 -17 -7 0
-13 -4 -13 -10 0 -5 -5 -10 -10 -10 -6 0 -27 -11 -48 -24 -20 -13 -80 -49
-132 -81 -52 -32 -117 -73 -145 -90 -27 -18 -115 -72 -195 -121 -80 -49 -151
-94 -158 -101 -7 -7 -18 -13 -23 -13 -5 0 -31 -16 -58 -35 -26 -19 -53 -35
-59 -35 -6 0 -12 -3 -14 -7 -1 -5 -37 -30 -78 -57 -248 -162 -603 -426 -800
-596 -25 -21 -56 -48 -70 -60 -113 -97 -295 -272 -400 -387 -48 -52 -73 -81
-159 -178 -9 -11 -30 -38 -47 -60 -16 -22 -32 -42 -35 -45 -19 -15 -87 -115
-83 -122 3 -4 15 -7 27 -7 29 1 197 -9 272 -15 69 -7 262 -18 317 -19 39 -1
43 -10 5 -13 -12 0 -78 -4 -147 -9 -69 -4 -152 -9 -185 -11 -33 -2 -99 -6
-147 -8 -109 -6 -132 -12 -123 -34 4 -10 9 -28 11 -40 9 -48 33 -129 58 -202
15 -41 28 -79 29 -85 2 -5 8 -20 15 -31 6 -12 8 -24 5 -28 -3 -3 -1 -6 5 -6 7
0 12 -7 12 -15 0 -28 136 -279 211 -389 41 -60 79 -116 84 -125 6 -9 12 -18
15 -21 3 -3 25 -30 50 -60 25 -30 56 -68 70 -85 55 -66 310 -315 395 -385 146
-122 286 -226 390 -290 39 -24 72 -47 75 -50 19 -23 281 -164 415 -225 96 -43
232 -96 285 -110 3 -1 14 -5 25 -9 78 -30 347 -107 425 -122 14 -3 50 -11 80
-19 54 -14 191 -43 240 -51 14 -3 39 -7 55 -11 17 -4 39 -7 50 -9 11 -1 47 -6
80 -13 33 -6 80 -13 105 -16 25 -3 56 -7 70 -10 13 -3 42 -7 65 -10 22 -3 56
-7 75 -10 32 -4 73 -9 185 -20 22 -3 60 -7 85 -10 25 -3 74 -8 110 -10 36 -2
97 -7 135 -10 433 -35 1176 -36 1640 0 72 5 216 17 245 20 14 2 39 3 57 4 30
1 31 3 35 50 1 27 0 47 -4 45 -4 -3 -5 2 -2 10 9 23 10 106 2 106 -4 0 -4 10
0 23 5 12 7 32 5 45 -2 12 -4 32 -6 45 -2 12 -1 26 2 31 2 6 4 26 3 45 -3 74
-12 384 -17 611 -2 129 -5 235 -5 235 -1 0 -3 90 -6 200 -2 110 -6 286 -9 390
-7 267 -13 521 -20 800 l-5 240 72 -2 c40 -1 141 -5 223 -8 83 -3 160 -6 172
-6 21 1 22 -3 18 -52 -24 -263 -24 -620 0 -794 12 -83 17 -111 35 -208 5 -27
12 -68 15 -90 3 -22 10 -67 16 -100 12 -62 16 -88 22 -127 2 -13 7 -32 10 -43
3 -11 9 -38 12 -60 5 -34 56 -283 70 -337 29 -120 68 -239 136 -413 44 -116
84 -221 89 -235 4 -14 23 -63 40 -110 18 -47 47 -125 65 -175 83 -226 114
-307 117 -311 3 -2 49 -6 104 -9 94 -5 134 -7 318 -20 43 -3 119 -7 170 -10
50 -3 100 -6 111 -8 13 -1 19 3 16 13 -2 8 -4 21 -4 28 0 6 -4 12 -9 12 -4 0
-8 8 -8 18 0 10 -4 22 -8 28 -5 5 -26 52 -47 104 -21 52 -43 109 -51 125 -7
17 -24 62 -39 100 -14 39 -32 86 -40 105 -17 46 -27 73 -31 85 -10 32 -31 86
-37 91 -4 4 -7 13 -7 20 0 7 -5 25 -12 41 -6 15 -12 33 -14 38 -1 6 -19 57
-39 115 -74 212 -150 479 -160 563 -6 48 -10 75 -19 132 -8 52 -14 106 -21
180 -3 33 -7 83 -10 110 -3 28 -7 72 -10 99 -2 27 -7 92 -11 145 -3 53 -8 123
-10 156 -10 124 -12 731 -3 753 5 13 13 21 18 18 5 -3 78 -8 162 -11 85 -2
219 -7 299 -10 80 -3 201 -8 270 -10 118 -4 269 -13 335 -20 17 -1 40 -3 53
-4 l23 -1 -8 -137 c-4 -76 -7 -268 -7 -428 0 -310 6 -421 30 -620 4 -27 8 -66
9 -85 2 -19 6 -48 8 -65 3 -16 8 -50 12 -75 4 -25 9 -58 11 -75 3 -16 7 -43
10 -60 2 -16 6 -41 9 -55 3 -14 8 -41 11 -60 4 -19 8 -42 9 -50 2 -8 11 -48
20 -89 9 -40 18 -78 19 -85 8 -36 19 -75 31 -106 7 -19 13 -39 14 -45 1 -13
30 -105 41 -130 5 -11 29 -76 55 -145 89 -240 99 -265 107 -275 4 -5 8 -15 8
-23 0 -21 93 -203 138 -268 22 -33 58 -80 81 -106 34 -38 46 -46 68 -42 15 3
29 6 32 8 3 2 15 0 26 -4 11 -4 34 -4 52 1 18 4 35 3 38 -2 3 -4 15 -5 27 0
12 4 38 5 59 1 21 -4 43 -4 49 0 6 4 31 4 55 0 24 -4 49 -3 56 1 6 4 25 3 40
-1 16 -5 29 -5 29 -1 0 4 22 5 49 1 27 -3 57 -3 67 0 10 4 33 4 51 -1 19 -4
36 -3 39 3 3 5 11 4 20 -3 8 -6 14 -8 14 -3 0 5 31 8 70 6 38 -2 70 -2 70 0 0
2 -8 22 -19 44 -10 21 -26 57 -36 79 -10 22 -26 58 -36 80 -10 22 -23 51 -28
65 -6 14 -15 32 -21 40 -8 12 -28 58 -35 80 -1 3 -23 50 -49 105 -27 55 -66
141 -88 190 -22 50 -53 118 -69 153 -16 35 -29 67 -29 72 0 4 -9 25 -19 47
-73 147 -197 507 -205 598 -2 17 -7 42 -11 54 -7 24 -12 49 -20 121 -3 25 -8
56 -10 69 -15 82 -25 242 -26 411 -1 117 8 328 15 365 2 11 7 52 11 90 4 39 9
81 11 95 7 56 17 126 20 140 1 8 3 23 3 33 1 17 8 18 94 13 50 -4 110 -9 132
-11 22 -3 76 -7 120 -10 44 -2 100 -6 125 -9 25 -3 86 -8 135 -11 50 -3 113
-8 140 -10 28 -3 88 -8 135 -11 47 -3 101 -7 120 -9 19 -2 78 -6 130 -10 103
-7 159 -12 260 -20 36 -3 97 -8 135 -10 39 -3 93 -7 120 -10 28 -2 88 -7 135
-10 47 -3 108 -7 135 -10 28 -2 91 -7 140 -10 50 -3 106 -7 125 -10 19 -2 73
-7 120 -10 47 -4 106 -8 130 -10 25 -2 86 -6 135 -9 50 -3 108 -8 130 -10 22
-3 81 -8 130 -11 50 -4 115 -8 145 -11 84 -7 158 -13 235 -19 95 -7 221 -16
270 -20 56 -5 177 -14 261 -19 40 -3 96 -7 125 -10 30 -4 86 -8 124 -11 39 -2
95 -7 125 -9 30 -3 93 -7 140 -11 47 -3 108 -8 135 -11 28 -2 86 -7 130 -10
44 -3 105 -7 135 -9 30 -3 87 -7 125 -10 39 -3 99 -8 135 -11 36 -3 83 -7 105
-9 22 -1 40 -3 40 -4 0 -1 41 -4 90 -6 50 -3 113 -7 140 -9 60 -5 211 -17 280
-22 28 -2 77 -5 110 -8 33 -3 96 -8 140 -11 44 -3 104 -8 132 -11 56 -5 158
-12 261 -19 35 -2 93 -6 130 -9 130 -12 178 -16 252 -21 41 -3 95 -7 120 -10
25 -2 88 -7 140 -10 52 -4 115 -8 140 -10 25 -2 78 -6 119 -9 40 -3 76 -8 79
-11 4 -3 -1 -18 -10 -33 -31 -50 -78 -150 -78 -165 0 -25 27 -40 62 -33 18 3
107 33 198 66 90 33 170 60 177 60 7 0 13 5 13 10 0 6 6 10 14 10 8 0 49 13
92 30 75 29 81 34 268 222 l191 194 140 -2 c197 -3 1045 -14 1515 -19 217 -3
555 -8 750 -11 195 -3 364 -5 376 -5 15 0 27 -14 47 -54 15 -30 45 -85 67
-121 22 -36 40 -70 40 -75 0 -5 4 -9 9 -9 5 0 13 -9 16 -20 3 -11 12 -26 18
-32 7 -7 32 -40 57 -73 74 -100 127 -155 210 -220 59 -45 203 -125 226 -125 8
0 14 -4 14 -9 0 -5 10 -11 23 -14 12 -3 56 -17 97 -32 41 -14 95 -31 120 -36
25 -6 54 -13 65 -16 11 -3 27 -6 35 -7 8 -2 29 -6 45 -9 183 -40 453 -40 655
0 19 4 42 8 50 9 20 4 42 10 60 17 8 3 33 11 55 17 44 13 187 71 195 80 3 3
27 16 55 30 217 109 464 389 605 685 18 39 34 71 36 73 1 2 25 -8 53 -22 28
-15 51 -23 51 -20 0 4 6 2 13 -4 6 -5 116 -56 242 -112 127 -56 248 -110 270
-121 25 -11 118 -96 244 -224 l205 -205 -3 -44 c-1 -24 -4 -55 -7 -68 -3 -13
-7 -36 -9 -53 -3 -39 -19 -157 -31 -237 -3 -18 -6 -48 -8 -66 -2 -18 -5 -35
-8 -37 -3 -3 -38 20 -79 52 -41 32 -80 62 -87 68 -7 5 -22 18 -33 28 -10 9
-23 17 -28 17 -5 0 -11 3 -13 8 -3 7 -63 55 -203 162 -38 30 -75 59 -81 64 -6
6 -22 18 -34 26 -12 8 -28 20 -34 25 -6 6 -42 35 -81 65 -38 30 -76 60 -83 67
-7 7 -17 13 -20 13 -4 0 -18 10 -32 23 -14 12 -52 42 -85 67 -33 25 -66 51
-74 58 -20 19 -61 45 -64 41 -1 -2 -13 -16 -25 -31 -23 -25 -23 -27 -5 -45 10
-11 34 -39 53 -64 19 -24 44 -54 55 -67 39 -44 50 -58 115 -137 36 -44 70 -85
75 -91 6 -6 28 -33 50 -60 22 -27 50 -59 63 -72 12 -12 22 -27 22 -32 0 -4 3
-10 8 -12 6 -2 168 -193 222 -261 8 -11 20 -24 25 -31 6 -6 35 -40 64 -76 30
-36 57 -67 60 -70 3 -3 18 -21 33 -41 14 -19 44 -55 67 -80 22 -24 43 -52 46
-61 3 -9 -4 -50 -17 -90 -12 -40 -23 -75 -23 -78 -1 -3 -7 -24 -13 -47 -25
-86 -25 -119 -1 -136 19 -14 24 -14 45 0 24 15 224 286 224 303 0 4 3 10 8 12
18 8 149 198 136 198 -4 0 -1 7 6 15 7 8 10 15 7 15 -3 0 7 35 22 78 15 42 29
80 29 85 1 4 6 24 12 45 20 65 71 249 85 302 2 8 4 15 5 15 1 0 4 12 6 26 3
15 -6 43 -21 70 -14 24 -28 52 -31 62 -4 9 -10 17 -15 17 -5 0 -9 6 -9 12 0 7
-15 35 -33 63 -149 223 -186 277 -226 330 -111 147 -214 257 -278 296 -21 13
-40 26 -43 29 -3 4 -30 19 -60 34 -30 14 -62 30 -70 35 -8 4 -31 15 -50 23
-19 9 -56 25 -82 37 -26 12 -50 21 -52 21 -2 0 -20 7 -40 15 -20 8 -38 15 -41
15 -3 0 -18 6 -33 13 -15 8 -64 27 -110 42 -46 16 -79 31 -75 35 4 4 53 28
108 52 113 51 180 82 275 126 36 16 88 40 115 52 28 12 79 36 115 52 36 16 81
37 100 45 19 9 62 28 95 44 33 15 140 64 239 108 176 80 197 94 253 168 15 21
30 40 34 43 3 3 53 77 112 165 l107 160 -5 70 c-3 39 -7 81 -10 95 -2 14 -7
50 -10 80 -3 30 -8 73 -11 95 -3 22 -6 54 -8 70 -17 138 -21 172 -26 185 -1 3
-2 8 -2 11 1 6 -6 54 -22 159 -3 19 -9 58 -12 85 -3 28 -8 53 -10 57 -3 4 -7
24 -10 45 -2 21 -6 45 -9 53 -2 8 -7 31 -10 50 -15 99 -81 348 -96 364 -5 6
-9 17 -9 25 0 8 -32 80 -72 160 -40 80 -73 152 -74 159 -1 7 -5 47 -9 90 -15
164 -21 205 -42 267 -10 28 -17 52 -18 55 0 3 -3 10 -7 15 -4 6 -22 41 -42 78
-55 106 -142 205 -231 262 -68 44 -76 45 -227 50 -127 4 -240 9 -518 20 -69 3
-192 7 -273 10 -81 2 -152 7 -157 10 -6 4 -10 1 -10 -5 0 -6 -5 -8 -10 -5 -6
3 -72 8 -148 11 -75 2 -200 6 -277 9 -218 7 -612 17 -810 19 -100 1 -186 6
-193 10 -7 4 -12 3 -12 -1 0 -9 -77 -10 -86 -1 -3 4 -18 3 -33 -2 -16 -4 -34
-4 -41 0 -7 4 -26 4 -41 0 -16 -5 -31 -5 -33 -1 -6 9 -43 8 -52 -1 -3 -3 -18
-3 -32 1 -15 5 -36 5 -47 1 -11 -4 -27 -4 -35 0 -8 4 -24 4 -35 0 -11 -4 -27
-4 -36 1 -9 5 -19 6 -22 3z m278 -366 c6 6 1495 13 1495 7 0 -3 -40 -30 -253
-169 -81 -53 -150 -96 -153 -96 -3 0 -12 -7 -20 -15 -14 -13 -13 -18 3 -45 9
-16 22 -30 27 -30 5 0 39 14 75 31 36 17 106 49 154 70 49 22 102 46 118 54
16 9 31 16 34 16 2 0 41 18 85 40 44 21 87 39 95 39 8 0 15 5 15 10 0 6 9 10
19 10 11 0 22 4 26 9 3 5 22 15 43 22 20 6 43 17 51 22 31 25 84 32 239 31 89
0 165 -4 168 -7 4 -3 14 -3 23 1 18 9 88 8 97 0 3 -4 18 -3 33 2 16 4 34 4 42
0 7 -5 17 -6 22 -3 5 3 39 5 76 4 67 -2 80 -2 164 -1 27 0 53 -2 58 -6 13 -8
125 -161 205 -279 122 -180 177 -278 180 -320 8 -111 24 -512 28 -677 l2 -86
-215 -144 c-118 -78 -219 -145 -225 -147 -6 -2 -13 -7 -16 -10 -6 -9 -600
-405 -614 -410 -6 -2 -17 -10 -24 -17 -7 -8 -20 -17 -29 -22 -14 -8 -13 -12 1
-40 9 -18 22 -32 29 -32 10 0 333 131 392 160 11 5 70 29 130 54 61 24 181 74
267 110 87 36 160 66 162 66 2 0 35 31 72 70 37 38 70 67 73 65 2 -3 5 -69 7
-147 5 -292 14 -657 19 -769 l6 -117 -48 -22 c-26 -12 -72 -33 -101 -47 -30
-13 -75 -33 -100 -44 -26 -11 -69 -31 -97 -44 -27 -13 -75 -35 -105 -49 -30
-13 -86 -39 -125 -56 -38 -18 -110 -50 -160 -72 -49 -22 -121 -54 -160 -72
-121 -57 -150 -70 -155 -71 -3 -1 -36 -16 -73 -34 -38 -18 -71 -30 -73 -28 -3
3 2 33 12 68 15 60 22 97 27 143 1 13 -8 23 -31 33 l-32 13 -30 -47 c-16 -27
-34 -53 -40 -60 -5 -7 -10 -15 -10 -18 0 -13 -167 -253 -248 -358 -140 -181
-272 -319 -409 -429 -92 -74 -216 -144 -278 -158 -5 -1 -14 -5 -20 -10 -9 -6
-130 -48 -160 -54 -5 -2 -30 -8 -55 -15 -25 -8 -52 -15 -60 -16 -8 -2 -15 -4
-15 -5 0 -1 -11 -3 -25 -6 -14 -2 -46 -9 -72 -15 -26 -6 -52 -8 -58 -4 -5 3
-10 3 -10 -2 0 -16 -275 -24 -350 -10 -19 4 -48 9 -65 12 -16 3 -46 11 -65 17
-19 7 -37 13 -40 13 -12 2 -125 58 -130 64 -3 3 -24 19 -48 35 -49 34 -172
164 -172 184 0 6 -4 12 -10 12 -5 0 -10 7 -10 15 0 8 -4 15 -10 15 -5 0 -10 7
-10 15 0 8 -3 15 -8 15 -4 0 -12 9 -17 19 -6 11 -35 66 -66 123 -31 56 -69
135 -84 173 -15 39 -31 79 -35 90 -40 98 -48 214 -20 287 98 252 247 454 465
630 80 64 272 188 293 188 5 0 12 3 14 8 5 13 262 137 291 141 4 0 20 7 35 14
46 24 168 64 254 83 10 2 28 6 41 9 12 3 40 8 62 11 22 3 51 8 65 11 32 7 403
7 451 0 45 -7 161 -37 174 -45 5 -4 15 -7 22 -8 15 -3 110 -56 142 -81 108
-83 231 -259 257 -369 4 -16 11 -35 17 -42 5 -7 7 -15 4 -19 -4 -3 -2 -12 4
-20 6 -7 9 -13 6 -13 -3 0 -1 -15 4 -32 5 -18 11 -52 14 -75 5 -56 8 -60 49
-55 l36 4 0 77 c0 42 0 85 0 96 1 11 0 41 0 68 -1 26 2 52 5 57 3 6 3 10 -2
10 -4 0 -8 19 -9 43 0 41 -9 131 -18 172 -2 11 -7 46 -11 79 -7 59 -7 59 -112
162 -58 57 -110 104 -115 104 -5 0 -19 9 -31 21 -66 62 -317 205 -437 248 -19
7 -44 17 -55 22 -33 14 -190 57 -236 65 -148 23 -169 25 -289 26 -100 1 -174
-5 -244 -18 -34 -6 -3 11 69 40 39 15 79 32 90 36 11 5 43 18 70 30 28 12 59
25 70 30 40 17 163 70 345 145 102 42 191 82 198 87 6 6 12 8 12 5 0 -3 28 7
63 22 61 28 97 43 107 46 3 1 23 9 45 19 22 10 76 33 120 51 44 18 141 59 215
90 74 32 160 67 190 80 74 30 250 104 275 115 11 5 27 11 35 12 8 2 17 5 20 8
3 3 37 19 75 34 39 16 74 33 79 37 5 4 3 23 -5 42 l-14 35 -272 -103 c-150
-56 -275 -100 -278 -97 -3 3 -5 0 -5 -6 0 -7 -6 -12 -12 -12 -7 0 -229 -81
-493 -181 -264 -99 -484 -181 -490 -183 -5 -1 -21 -8 -35 -16 -14 -7 -25 -12
-25 -11 0 3 -62 -18 -120 -40 -16 -7 -34 -13 -40 -15 -5 -1 -50 -18 -100 -38
-49 -20 -94 -36 -98 -36 -5 0 -23 -6 -40 -14 -18 -8 -79 -32 -137 -54 -61 -23
-156 -71 -228 -116 -68 -42 -128 -76 -132 -76 -5 0 -10 -4 -12 -8 -1 -4 -55
-39 -118 -77 -113 -68 -132 -83 -125 -95 2 -3 -33 -28 -77 -54 -172 -104 -378
-281 -492 -426 -20 -25 -40 -49 -45 -55 -14 -16 -51 -45 -51 -40 0 3 -17 -4
-37 -15 -38 -19 -188 -89 -293 -137 -239 -109 -254 -116 -258 -125 -2 -5 -10
-8 -18 -8 -8 0 -22 -4 -32 -9 -17 -10 -86 -43 -287 -137 -55 -25 -125 -58
-155 -72 -30 -14 -57 -27 -60 -27 -3 -1 -40 -18 -82 -38 -43 -20 -113 -54
-155 -74 -43 -20 -80 -37 -83 -38 -3 0 -32 -14 -65 -30 -33 -16 -63 -28 -67
-27 -5 1 -8 -3 -8 -8 0 -5 -3 -9 -7 -8 -12 3 -105 -42 -125 -59 -15 -13 -72
-16 -377 -18 -255 -1 -358 2 -354 9 4 6 15 20 25 31 10 11 54 67 98 125 44 58
89 115 99 128 11 12 16 22 13 22 -4 0 0 6 8 13 9 7 26 29 39 50 13 21 28 43
35 50 14 14 122 173 151 223 11 18 47 77 80 131 33 54 59 101 58 105 -3 7 41
23 87 32 60 13 126 28 285 66 94 22 179 43 190 45 11 3 98 23 195 46 96 23
185 43 197 45 12 2 34 9 49 14 15 6 29 8 32 5 3 -2 11 0 19 6 7 6 13 9 13 6 0
-3 26 2 58 10 57 15 73 19 115 28 12 3 51 12 86 21 36 9 73 18 84 20 10 2 26
5 35 8 9 3 28 7 42 10 30 6 44 9 135 31 39 9 77 18 85 20 8 2 42 10 75 18 33
9 71 18 85 21 50 9 193 45 197 49 2 3 0 20 -5 38 -6 25 -14 34 -28 33 -25 -2
-112 -13 -144 -19 -14 -3 -41 -7 -60 -10 -19 -3 -42 -8 -50 -10 -8 -2 -37 -7
-65 -10 -27 -4 -59 -8 -70 -10 -57 -8 -233 -36 -255 -39 -61 -11 -107 -18
-130 -21 -14 -2 -55 -8 -93 -14 -37 -6 -79 -13 -95 -16 -15 -2 -43 -7 -62 -10
-19 -3 -51 -8 -70 -10 -19 -2 -46 -6 -60 -9 -14 -3 -41 -7 -60 -10 -31 -4
-115 -17 -202 -31 -55 -10 -84 -14 -126 -20 -24 -3 -79 -12 -124 -20 -44 -8
-83 -14 -86 -14 -4 1 -9 0 -12 -1 -3 -1 -14 -3 -25 -4 -11 -1 -37 -6 -57 -10
l-37 -7 11 38 c5 21 13 43 17 48 18 24 77 217 87 280 3 22 7 42 9 45 2 3 6 37
10 75 4 39 8 77 10 85 2 12 95 45 95 33 0 -2 6 -1 13 4 6 4 17 8 22 9 6 1 35
7 65 13 30 6 66 14 80 16 14 3 36 8 50 11 24 5 46 10 92 19 13 2 60 13 106 24
45 10 86 20 90 20 4 1 16 4 27 6 11 3 31 7 45 9 14 2 48 10 75 16 28 7 64 14
80 16 17 2 46 9 65 14 19 5 71 17 115 26 156 32 217 44 285 60 14 3 34 7 45 9
11 2 31 7 45 10 36 9 61 14 98 20 19 2 37 7 42 10 4 3 26 7 49 10 23 3 72 17
109 31 37 15 73 26 80 27 6 0 12 4 12 9 0 4 3 7 8 6 4 0 16 2 27 7 11 4 56 21
100 37 44 17 94 36 110 43 56 23 100 40 105 40 3 1 22 9 44 18 21 9 44 17 51
17 6 0 15 3 19 8 4 4 11 7 15 7 4 0 25 8 46 17 22 10 108 43 190 73 83 31 165
64 184 72 18 8 39 16 45 18 6 1 20 6 31 10 11 5 81 32 155 60 74 29 144 56
155 60 11 5 22 9 25 10 3 1 19 7 35 14 17 7 35 14 40 15 6 1 18 7 29 13 15 8
17 15 9 39 -12 35 -35 37 -128 10 -5 -2 -17 -6 -25 -9 -8 -3 -35 -11 -60 -18
-25 -7 -49 -14 -55 -15 -15 -4 -102 -31 -180 -55 -38 -11 -77 -22 -85 -24 -8
-1 -22 -5 -30 -8 -8 -3 -132 -40 -275 -83 -143 -42 -304 -89 -357 -106 -53
-16 -103 -31 -110 -32 -7 -2 -20 -6 -28 -9 -13 -5 -188 -56 -265 -77 -16 -5
-46 -13 -65 -20 -19 -6 -42 -13 -50 -15 -8 -2 -46 -13 -85 -25 -38 -12 -92
-27 -120 -35 -27 -7 -62 -18 -77 -24 -16 -6 -28 -8 -28 -5 0 3 -6 2 -12 -3 -7
-4 -16 -8 -20 -9 -5 -1 -10 -3 -13 -4 -3 -1 -8 -3 -12 -4 -5 -1 -35 -10 -68
-20 -33 -10 -67 -20 -75 -22 -8 -2 -82 -24 -165 -49 -82 -25 -157 -47 -165
-49 -9 -2 -85 -25 -170 -51 -85 -26 -177 -53 -205 -60 -27 -7 -94 -27 -147
-43 -54 -17 -98 -28 -98 -25 0 3 -7 0 -15 -7 -12 -10 -14 -3 -9 57 9 122 4
840 -7 900 -4 22 3 31 29 37 15 4 110 29 212 56 102 27 199 51 215 54 17 3 41
7 55 11 33 8 119 25 150 29 14 3 45 8 70 11 25 4 53 9 64 11 10 2 42 6 70 8
28 3 60 7 71 10 11 2 52 7 90 11 39 4 84 9 100 11 17 2 62 6 100 9 39 3 86 8
105 10 54 6 263 23 360 30 36 2 94 7 130 9 36 3 103 8 150 11 47 2 126 7 175
10 50 3 125 7 169 10 43 2 81 6 84 9 2 3 12 1 22 -4 10 -5 21 -6 25 -2z
m-15599 -1176 c1 -86 5 -320 8 -519 10 -566 17 -998 20 -1246 2 -125 6 -230 9
-233 2 -3 1 -20 -3 -39 -4 -19 -6 -36 -3 -38 2 -3 6 -133 8 -288 6 -406 14
-918 20 -1259 3 -162 7 -421 10 -576 l4 -281 -27 3 c-15 2 -58 6 -97 9 -128
10 -170 14 -220 21 -27 3 -66 8 -85 10 -19 2 -46 6 -60 9 -14 3 -43 7 -65 10
-22 2 -49 7 -60 9 -11 2 -40 7 -65 10 -25 3 -56 8 -70 11 -14 3 -59 12 -100
20 -77 15 -93 19 -170 35 -25 6 -56 13 -70 15 -14 3 -36 8 -50 12 -14 3 -29 7
-35 9 -5 1 -30 7 -55 13 -25 7 -52 13 -60 15 -8 2 -51 14 -95 25 -44 12 -84
23 -90 25 -39 10 -148 43 -245 74 -63 20 -117 36 -120 37 -39 7 -629 216 -705
249 -16 8 -64 28 -105 46 -70 30 -348 170 -415 209 -16 10 -50 29 -75 43 -25
14 -72 42 -105 62 -33 20 -68 39 -77 42 -10 4 -18 10 -18 15 0 5 -4 9 -10 9
-5 0 -42 21 -82 47 -40 27 -77 50 -83 53 -17 9 -130 83 -135 89 -3 3 -13 11
-22 16 -46 27 -133 90 -136 97 -2 4 -8 8 -13 8 -10 0 -361 262 -390 291 -8 8
-24 22 -36 30 -60 42 -204 170 -343 306 l-115 112 51 48 c98 91 229 211 288
264 33 30 68 62 78 72 10 9 20 17 22 17 3 0 17 12 33 28 16 15 55 50 87 77 32
28 67 59 79 70 20 19 245 207 275 230 7 5 21 17 30 26 14 13 80 65 130 104 7
6 18 15 25 20 62 51 287 222 377 288 112 80 237 166 300 205 41 25 77 49 80
52 9 9 170 95 350 186 63 32 118 62 122 68 4 6 8 7 8 3 0 -5 15 0 33 11 48 30
427 218 526 262 47 20 106 47 131 58 25 11 86 37 135 57 50 19 99 40 110 44
32 15 104 41 169 62 34 11 70 24 81 29 19 8 94 33 105 35 3 0 38 11 78 23 211
64 506 137 682 168 14 2 47 9 75 15 27 5 72 12 100 15 27 3 52 8 54 10 12 12
15 -21 17 -164z m14587 -1479 c-1 -6 -5 -26 -8 -45 -3 -18 -8 -40 -11 -49 -5
-18 -11 -54 -22 -134 -4 -27 -7 -130 -7 -228 l0 -177 -35 6 c-19 3 -44 7 -55
9 -55 9 -155 25 -190 30 -22 4 -51 8 -65 10 -14 1 -43 5 -65 9 -52 9 -112 17
-150 20 -30 3 -125 14 -180 21 -145 18 -307 29 -537 36 -43 1 -78 6 -78 10 0
5 3 9 8 10 15 1 40 9 107 34 39 14 97 35 130 46 33 11 69 24 80 29 11 4 43 16
70 25 28 9 64 23 80 30 17 7 57 21 90 30 33 10 66 23 73 28 6 5 12 6 12 2 0
-4 6 -3 13 2 6 6 44 21 82 33 39 12 76 28 84 34 8 6 15 9 15 7 1 -2 26 4 56
14 30 11 57 20 60 20 3 1 14 5 25 9 68 26 263 96 280 100 18 5 50 17 80 31 34
16 61 14 58 -2z"/>
<path d="M3530 13629 c-59 -12 -212 -59 -226 -70 -6 -5 -14 -6 -17 -2 -4 3 -7
0 -7 -7 0 -7 -3 -11 -6 -7 -6 6 -107 -45 -128 -63 -5 -5 1 -22 13 -39 l22 -30
77 39 c82 41 201 84 267 96 22 5 43 9 48 10 4 1 13 2 20 3 10 1 12 11 8 38 -7
42 -11 44 -71 32z"/>
<path d="M3175 13145 c-48 -14 -123 -52 -142 -71 -8 -7 -20 -17 -26 -21 -32
-20 -101 -136 -115 -193 -9 -34 -8 -167 1 -200 33 -124 143 -242 257 -278 71
-22 107 -26 174 -18 126 14 231 82 298 191 32 51 61 143 60 190 0 34 -13 113
-23 143 -38 116 -161 232 -274 258 -53 12 -169 12 -210 -1z"/>
<path d="M19682 12162 c-12 -14 -22 -29 -22 -32 0 -5 223 -196 298 -255 14
-11 33 -27 41 -35 9 -8 55 -46 101 -85 47 -38 87 -72 90 -75 3 -3 30 -25 60
-50 30 -25 60 -49 66 -55 6 -5 30 -26 53 -45 24 -19 48 -40 54 -45 7 -6 41
-35 77 -65 35 -30 71 -61 78 -68 8 -7 30 -25 50 -40 21 -15 39 -30 42 -33 3
-4 54 -48 115 -98 l109 -91 23 25 c30 32 29 38 -9 68 -18 14 -42 33 -53 43
-19 17 -114 98 -158 134 -10 8 -31 25 -45 38 -15 13 -43 35 -62 50 -19 15 -39
32 -45 38 -5 6 -37 33 -70 60 -33 27 -69 57 -80 67 -11 10 -51 44 -90 75 -38
31 -77 64 -85 72 -8 8 -40 35 -70 60 -75 61 -88 72 -141 116 -25 22 -69 59
-99 84 -30 25 -84 70 -120 101 -86 73 -84 72 -108 41z"/>
<path d="M17921 12121 c-12 -16 -21 -31 -21 -33 0 -2 34 -28 76 -58 42 -30 98
-72 125 -92 27 -21 53 -38 58 -38 5 0 11 -4 13 -8 2 -5 55 -46 118 -92 63 -47
117 -88 118 -92 2 -5 8 -8 13 -8 10 0 132 -91 137 -102 2 -5 8 -8 13 -8 5 0
39 -22 74 -50 35 -27 69 -50 74 -50 5 0 11 -3 13 -8 2 -4 37 -32 78 -62 41
-30 77 -58 78 -62 2 -5 10 -8 18 -8 8 0 14 -4 14 -10 0 -19 19 -10 41 21 22
31 22 32 3 46 -10 7 -26 19 -34 26 -8 6 -28 21 -45 31 -28 18 -40 28 -68 51
-7 6 -34 26 -62 45 -27 19 -54 38 -60 43 -13 10 -297 217 -325 237 -12 8 -38
28 -58 43 -20 15 -81 60 -136 100 -56 39 -103 74 -106 77 -5 6 -97 71 -117 83
-7 4 -20 -5 -32 -22z"/>
<path d="M17597 11837 c-15 -16 -24 -33 -18 -36 8 -6 298 -284 536 -516 56
-55 205 -199 330 -320 125 -121 275 -266 333 -322 58 -57 110 -103 116 -103
27 0 60 63 37 72 -9 3 -221 206 -512 490 -70 68 -238 231 -375 363 -136 132
-271 263 -299 290 -28 28 -67 64 -86 82 l-34 31 -28 -31z"/>
<path d="M22317 11477 l-25 -22 45 -50 c50 -55 245 -263 333 -354 30 -32 105
-111 165 -175 61 -65 135 -144 165 -175 30 -32 105 -111 165 -175 156 -167
187 -200 283 -301 47 -49 103 -109 125 -131 l39 -42 -51 -75 c-28 -42 -51 -81
-51 -87 0 -5 -4 -10 -9 -10 -5 0 -11 -8 -15 -17 -3 -10 -23 -44 -43 -75 -21
-31 -78 -120 -126 -197 -49 -78 -92 -143 -95 -145 -7 -4 -91 67 -185 157 -28
26 -52 47 -54 47 -3 0 -19 15 -37 33 -18 17 -68 64 -111 102 -142 127 -273
246 -318 288 -98 91 -172 146 -450 331 -170 113 -312 206 -317 206 -5 0 -10 4
-12 8 -4 10 -218 152 -228 152 -5 0 -10 3 -12 8 -1 4 -45 36 -96 70 -99 66
-108 68 -134 19 -11 -21 -4 -29 72 -87 18 -14 81 -63 140 -110 59 -47 122 -96
140 -110 39 -29 93 -72 100 -80 3 -3 25 -21 50 -40 25 -19 50 -39 56 -45 6 -5
23 -19 38 -30 15 -11 78 -60 139 -109 62 -48 127 -100 146 -115 67 -51 96 -76
99 -83 2 -5 10 -8 17 -8 7 0 15 -4 17 -9 2 -5 50 -46 108 -91 58 -45 107 -86
108 -91 2 -5 8 -9 13 -9 6 0 16 -5 23 -11 8 -6 28 -23 45 -38 17 -14 37 -32
45 -38 9 -7 19 -13 23 -13 5 0 14 -9 21 -20 7 -11 17 -20 22 -20 5 0 22 -11
37 -25 16 -14 89 -72 163 -130 74 -59 142 -112 150 -118 8 -7 39 -31 67 -55
l52 -43 -30 -49 c-20 -32 -36 -48 -47 -45 -9 1 -60 8 -112 14 -52 7 -111 14
-130 17 -19 3 -55 7 -80 10 -25 2 -61 6 -80 9 -19 3 -62 7 -95 10 -95 9 -147
14 -185 19 -19 3 -66 7 -105 11 -75 6 -163 14 -208 19 -15 2 -31 7 -35 11 -4
4 -60 57 -125 118 -65 62 -165 157 -222 212 -57 55 -168 161 -246 235 -78 74
-168 160 -200 190 -76 74 -86 81 -214 146 -60 31 -144 74 -185 96 -41 22 -144
77 -230 121 -85 44 -156 84 -158 89 -2 4 -10 8 -17 8 -8 0 -34 11 -57 23 -48
27 -205 110 -346 183 -156 82 -261 136 -405 212 -75 40 -141 72 -145 72 -13 0
-41 -55 -34 -66 9 -14 262 -184 273 -184 5 0 9 -4 9 -8 0 -5 16 -17 35 -28 19
-10 35 -22 35 -26 0 -5 5 -8 11 -8 6 0 17 -6 24 -12 31 -28 44 -38 50 -38 4 0
21 -11 39 -25 18 -14 38 -25 44 -25 6 0 12 -4 14 -8 2 -5 80 -60 174 -124 94
-63 194 -132 222 -152 29 -20 56 -36 62 -36 5 0 10 -4 10 -8 0 -5 17 -16 38
-25 20 -9 75 -37 122 -62 79 -43 265 -142 370 -197 47 -24 563 -405 568 -420
2 -4 10 -8 17 -8 7 0 15 -3 17 -7 2 -5 66 -55 143 -112 77 -57 145 -108 150
-113 6 -7 -18 -8 -70 -3 -44 3 -107 8 -140 11 -33 2 -87 6 -120 9 -33 3 -96 7
-140 10 -44 3 -114 7 -155 10 -69 5 -129 8 -345 21 -123 7 -318 13 -441 13
-90 1 -112 4 -110 15 0 8 -217 178 -489 382 -269 202 -491 371 -493 376 -2 4
-8 8 -12 8 -5 0 -69 45 -141 101 l-132 101 -29 -29 -29 -29 104 -110 c58 -60
133 -138 166 -174 143 -151 322 -339 411 -431 l95 -98 150 -46 c83 -25 157
-48 165 -50 8 -2 26 -8 40 -14 l25 -10 -30 -1 c-16 -1 -46 -3 -65 -5 -19 -2
-66 -6 -105 -10 -79 -7 -138 -14 -175 -21 -14 -3 -41 -7 -60 -9 -69 -9 -102
-14 -128 -20 -34 -7 -69 -14 -107 -21 -16 -3 -77 -16 -135 -30 -58 -14 -114
-27 -125 -29 -11 -3 -43 -11 -70 -19 -27 -9 -51 -13 -53 -11 -2 2 3 35 12 73
8 38 19 100 23 138 9 87 10 339 0 419 -9 81 -20 142 -36 193 -5 18 -10 33 -10
35 0 4 -21 62 -38 102 -17 41 -81 135 -127 190 -122 142 -246 266 -360 360
-27 22 -54 45 -60 50 -24 22 -181 133 -190 133 -5 0 -12 4 -15 9 -40 55 -397
211 -551 240 -8 1 -80 18 -160 38 -80 19 -156 37 -170 40 -64 12 -102 20 -150
31 -35 8 -110 24 -140 29 -14 3 -34 7 -45 9 -210 45 -227 47 -241 35 -18 -15
-15 -49 6 -60 8 -5 62 -31 120 -59 58 -27 130 -64 160 -81 55 -31 286 -176
305 -192 6 -4 48 -36 95 -70 47 -34 90 -66 96 -72 6 -5 35 -30 64 -55 150
-127 290 -285 365 -412 6 -9 29 -48 51 -85 183 -303 284 -548 298 -724 3 -31
6 -60 7 -65 1 -5 0 -11 -1 -14 -1 -3 -3 -32 -4 -65 -2 -54 -10 -112 -23 -170
-2 -11 -6 -31 -9 -43 -35 -168 -134 -448 -185 -523 -15 -21 -16 -33 -8 -62 5
-21 13 -37 17 -37 27 -1 669 -11 899 -14 155 -3 287 -7 292 -10 5 -4 12 -2 16
4 4 7 12 7 25 0 13 -7 21 -7 25 0 4 6 11 8 16 4 10 -6 525 -15 981 -18 131 0
238 -3 238 -6 0 -3 111 -6 248 -7 136 -1 398 -4 582 -7 849 -14 1191 -19 1392
-20 120 0 218 -4 218 -7 0 -3 11 -4 24 -2 19 4 34 30 89 156 36 84 67 159 69
167 2 8 6 17 9 20 3 3 20 41 38 85 18 44 41 98 51 120 15 34 51 119 125 290
25 58 47 120 51 144 3 13 9 32 15 42 5 10 9 22 8 26 -1 4 0 11 1 16 5 14 7 22
14 62 4 22 10 47 13 55 4 8 5 18 5 22 -1 4 2 29 8 55 18 92 22 119 27 216 5
107 -2 127 -44 127 -26 0 -36 10 -398 395 -71 76 -146 155 -165 176 -19 20
-93 99 -165 175 -71 76 -148 157 -170 180 -22 23 -95 100 -161 171 -67 70
-151 160 -188 198 -36 39 -66 73 -66 78 0 15 -30 6 -53 -16z"/>
</g>
</svg>
