<?xml version="1.0" encoding="UTF-8"?>
<svg fill="none" viewBox="0 0 517 517" xmlns="http://www.w3.org/2000/svg">
<path d="m350.5 50.5 15.5 13" stroke="#000"/>
<path d="m324.5 54.5 16.5 16" stroke="#000"/>
<path d="m369 75.5 11 10.5-12-9-7.5-4-12.5-8.5 21 11z" fill="#000" stroke="#000"/>
<path d="m328.5 51 13 9.5" stroke="#000"/>
<path d="m352.5 82.5 6.5 2-16-12 9.5 10z" fill="#000"/>
<path d="m400.5 50.5c-2.4-1.6-7.333-3.3333-9.5-4l-1 2 9 4 5.5 5.5-1 7.5-13.5-10.5 12.5 15s-1.5 4.5-1 4 3.6-5.1 4-5.5 1.833-5.5 2.5-8c-1.5-2.6667-5.1-8.4-7.5-10z" fill="#000"/>
<path d="m352.5 82.5 6.5 2-16-12 9.5 10z" stroke="#000"/>
<path d="m400.5 50.5c-2.4-1.6-7.333-3.3333-9.5-4l-1 2 9 4 5.5 5.5-1 7.5-13.5-10.5 12.5 15s-1.5 4.5-1 4 3.6-5.1 4-5.5 1.833-5.5 2.5-8c-1.5-2.6667-5.1-8.4-7.5-10z" stroke="#000"/>
<path d="m392.5 32 15-10v2l-3 3-12 5z" fill="#000" stroke="#000"/>
<path d="m371 23-6.5 4 34.5-14.5-28 10.5z" fill="#000" stroke="#000"/>
<path d="m334.5 44.5 22.5-10.5v2.5l-22.5 8z" fill="#000" stroke="#000"/>
<path d="m358.5 26.5-25.5 4-2 2.5 27.5-6.5z" fill="#000"/>
<path d="m376.5 10-40.5 12 21-4.5 19.5-7.5z" fill="#000"/>
<path d="m358.5 26.5-25.5 4-2 2.5 27.5-6.5z" stroke="#000"/>
<path d="m376.5 10-40.5 12 21-4.5 19.5-7.5z" stroke="#000"/>
<path d="m380.5 9 8.5-5.5h3.5l-12 5.5z" fill="#000" stroke="#000"/>
<path d="m362 57.5c-3.6-2.4-6.5-8.6667-7.5-11.5l3.5-1c0 2 1.723 5.9366 4 9 4 5.3803 11 4.5 17.5 2 5.2-2 10.667-10.167 12.5-13.5-0.5 3.3333-2.9 11-8.5 15-7 5-17 3-21.5 0z" fill="#000" stroke="#000"/>
<path d="m356.5 34.5c-2.068 2.9538-2.667 9.3333-2 12h3c1.5-8.5 8.305-12.303 10.5-13.5 5.5-3 9.5-4 15-3.5 6.772 0.6156 8.833 6.6667 9 10v-4.5l-0.5-3.5c-2.333-2.8333-9.2-8.2-18-7-8 1.0909-13.5 5-17 10z" fill="#000" stroke="#000"/>
<path d="m406.56 11.989c-1.716-3.0369-3.824-5.9477-5.058-7.4894l-0.5-1.5c-0.634-0.92504-0.82-1.0945 0.5-1 1 0.33333 3.3 1.9 4.5 5.5 0.234 0.70183 0.415 2.3272 0.558 4.4894 1.067 1.8876 1.982 3.824 2.442 5.5106 1.2 4.4 2.167 12.5 2.5 16 0 0-3.5 5.5-4 5.5-0.403 0-0.351-18.082-0.942-27.011z" fill="#000"/>
<path d="m401.5 4.5c2 2.5 6.3 8.6 7.5 13s2.167 12.5 2.5 16c0 0-3.5 5.5-4 5.5s-0.3-27.9-1.5-31.5-3.5-5.1667-4.5-5.5c-1.32-0.09454-1.134 0.07496-0.5 1l0.5 1.5z" stroke="#000"/>
<path d="m341 45c-6-0.4-16.167-0.1667-19.5 0l-5.5 4 40 0.5v-2.5c-3-0.5-9-1.6-15-2z" fill="#000" stroke="#000"/>
<path d="m316 60.5c0.036 0 0.123 0.0261 0.254 0.0768 1.579 0.3557 9.587 1.8704 12.746 2.9232 4.5 1.5 9.5 5.5 13 10 2.8 3.6 2.167 11.5 1 14 7-2 13-2.95 22-2.5 4.395 0.2197 17.5 1 28.5 2.5 0 0 6.5-10.5 7-11s-0.3 5.7-1.5 8.5l-4.5 10.5-62-1c0.333-0.1667 1.3-1.6 2.5-6 1.5-5.5 1-8.5-4-16.5-3.714-5.9425-13.032-10.764-14.746-11.423-0.22-0.0497-0.315-0.0768-0.254-0.0768z" fill="#000"/>
<path d="m316 60.5c0.5 0 11 5.1 15 11.5 5 8 5.5 11 4 16.5-1.2 4.4-2.167 5.8333-2.5 6l62 1c1-2.3333 3.3-7.7 4.5-10.5s2-9 1.5-8.5-7 11-7 11c-11-1.5-24.106-2.2803-28.5-2.5-9-0.45-15 0.5-22 2.5 1.167-2.5 1.8-10.4-1-14-3.5-4.5-8.5-8.5-13-10-3.6-1.2-13.5-3-13-3z" stroke="#000"/>
<path d="m366.5 1c-9.2 0-26.167 0.66667-33.5 1v7c9.333-1.3333 5.5-3 33.5-4.5 4.412-0.23635 25 0 35 0l-0.5-2.5c-8-0.33333-25.3-1-34.5-1z" fill="#000" stroke="#000"/>
<path d="m328.5 20c-2.8 8.4-20.5 36.5-20 36.5s7-2.5 7-2.5c4.5-4 17.692-18.5 20-28.5 1.2-5.2 0.5-17.833 0-23.5h-4.5c0 3.6667 0.3 9.6-2.5 18z" fill="#000" stroke="#000"/>
<path d="m185 57c-1-6 0-11.667 0-14h8.5c-1 6 0.214 19.964 1 23.5 1 4.5 4.167 12.833 6 17l-8-0.5c-1.167-3.1667-3.7-10-4.5-12-1-2.5-2-8-3-14z" fill="#000" stroke="#000"/>
<path d="m208.94 61c-0.944-8 0-15.667 0-18h10.556c-1 6-2.611 13-0.5 22.5 1 4.5 5.667 13.833 7.5 18h-10c-2.444-2.5-3.7-7-4.5-9-1-2.5-2.111-5.5-3.056-13.5z" fill="#000" stroke="#000"/>
<path d="m173.5 76-1-61h4.5l1.5 61h-5z" fill="#000" stroke="#000"/>
<path d="m114 49-8-0.5c8.5-11.5 23-19.5 28.5-23 9.429-6 26-12 30.5-13 1.746-0.3881 8.667-1.3333 12-1.5v5.5c-19 2-28.5 8-37.5 12.5-6 3-16.5 11.5-25.5 20z" fill="#000" stroke="#000"/>
<path d="m114 50-8 0.5c2.5 11 11.5 18.5 19 23 10.833 6.5 32.5 9 53.5 7v-4.1217c-15 0-26.544-3.9396-36-7.3783-9-3.2727-22.5-12.5-28.5-19z" fill="#000" stroke="#000"/>
<circle cx="145.5" cy="43" r="5" fill="#000"/>
<path d="m144 34.5c0.667-0.5 2.7-1.6 5.5-2" stroke="#000"/>
<path d="m326.5 41.5-11 12.5-110.5-8.5-28-1v-5.5l149.5 2.5z" fill="#000" stroke="#000"/>
<path d="m407.5 39-16.5 7.5" stroke="#000"/>
<path d="m384 75.5 10.5 9.5v0.5l-24-19 13.5 9z" fill="#000" stroke="#000"/>
<path d="M383.5 59L400 76.5" stroke="#000"/>
<path d="m167 467-15.5-13" stroke="#000"/>
<path d="m193 463-16.5-16" stroke="#000"/>
<path d="m148.5 442-11-10.5 12 9 7.5 4 12.5 8.5-21-11z" fill="#000" stroke="#000"/>
<path d="m189 466.5-13-9.5" stroke="#000"/>
<path d="m165 435-6.5-2 16 12-9.5-10z" fill="#000"/>
<path d="m117 467c2.4 1.6 7.333 3.333 9.5 4l1-2-9-4-5.5-5.5 1-7.5 13.5 10.5-12.5-15s1.5-4.5 1-4-3.6 5.1-4 5.5-1.833 5.5-2.5 8c1.5 2.667 5.1 8.4 7.5 10z" fill="#000"/>
<path d="m165 435-6.5-2 16 12-9.5-10z" stroke="#000"/>
<path d="m117 467c2.4 1.6 7.333 3.333 9.5 4l1-2-9-4-5.5-5.5 1-7.5 13.5 10.5-12.5-15s1.5-4.5 1-4-3.6 5.1-4 5.5-1.833 5.5-2.5 8c1.5 2.667 5.1 8.4 7.5 10z" stroke="#000"/>
<path d="m125 485.5-15 10v-2l3-3 12-5z" fill="#000" stroke="#000"/>
<path d="m146.5 494.5 6.5-4-34.5 14.5 28-10.5z" fill="#000" stroke="#000"/>
<path d="m183 473-22.5 10.5v-2.5l22.5-8z" fill="#000" stroke="#000"/>
<path d="m159 491 25.5-4 2-2.5-27.5 6.5z" fill="#000"/>
<path d="m141 507.5 40.5-12-21 4.5-19.5 7.5z" fill="#000"/>
<path d="m159 491 25.5-4 2-2.5-27.5 6.5z" stroke="#000"/>
<path d="m141 507.5 40.5-12-21 4.5-19.5 7.5z" stroke="#000"/>
<path d="m137 508.5-8.5 5.5h-3.5l12-5.5z" fill="#000" stroke="#000"/>
<path d="m155.5 460c3.6 2.4 6.5 8.667 7.5 11.5l-3.5 1c0-2-1.722-5.937-4-9-4-5.38-11-4.5-17.5-2-5.2 2-10.667 10.167-12.5 13.5 0.5-3.333 2.9-11 8.5-15 7-5 17-3 21.5 0z" fill="#000" stroke="#000"/>
<path d="m161 483c2.068-2.954 2.667-9.333 2-12h-3c-1.5 8.5-8.305 12.303-10.5 13.5-5.5 3-9.5 4-15 3.5-6.772-0.616-8.833-6.667-9-10v4.5l0.5 3.5c2.333 2.833 9.2 8.2 18 7 8-1.091 13.5-5 17-10z" fill="#000" stroke="#000"/>
<path d="m110.94 505.51c1.717 3.037 3.825 5.947 5.058 7.489l0.5 1.5c0.634 0.925 0.82 1.095-0.5 1-1-0.333-3.3-1.9-4.5-5.5-0.234-0.702-0.415-2.327-0.558-4.489-1.067-1.888-1.982-3.824-2.442-5.511-1.2-4.4-2.167-12.5-2.5-16 0 0 3.5-5.5 4-5.5 0.403 0 0.351 18.082 0.942 27.011z" fill="#000"/>
<path d="m116 513c-2-2.5-6.3-8.6-7.5-13s-2.167-12.5-2.5-16c0 0 3.5-5.5 4-5.5s0.3 27.9 1.5 31.5 3.5 5.167 4.5 5.5c1.32 0.095 1.134-0.075 0.5-1l-0.5-1.5z" stroke="#000"/>
<path d="m176.5 472.5c6 0.4 16.167 0.167 19.5 0l5.5-4-40-0.5v2.5c3 0.5 9 1.6 15 2z" fill="#000" stroke="#000"/>
<path d="m201.5 457c-0.036 0-0.122-0.026-0.254-0.077-1.579-0.355-9.587-1.87-12.746-2.923-4.5-1.5-9.5-5.5-13-10-2.8-3.6-2.167-11.5-1-14-7 2-13 2.95-22 2.5-4.394-0.22-17.5-1-28.5-2.5 0 0-6.5 10.5-7 11s0.3-5.7 1.5-8.5l4.5-10.5 62 1c-0.333 0.167-1.3 1.6-2.5 6-1.5 5.5-1 8.5 4 16.5 3.714 5.943 13.032 10.764 14.746 11.423 0.22 0.05 0.315 0.077 0.254 0.077z" fill="#000"/>
<path d="m201.5 457c-0.5 0-11-5.1-15-11.5-5-8-5.5-11-4-16.5 1.2-4.4 2.167-5.833 2.5-6l-62-1c-1 2.333-3.3 7.7-4.5 10.5s-2 9-1.5 8.5 7-11 7-11c11 1.5 24.106 2.28 28.5 2.5 9 0.45 15-0.5 22-2.5-1.167 2.5-1.8 10.4 1 14 3.5 4.5 8.5 8.5 13 10 3.6 1.2 13.5 3 13 3z" stroke="#000"/>
<path d="m151 516.5c9.2 0 26.167-0.667 33.5-1v-7c-9.333 1.333-5.5 3-33.5 4.5-4.412 0.236-25 0-35 0l0.5 2.5c8 0.333 25.3 1 34.5 1z" fill="#000" stroke="#000"/>
<path d="m189 497.5c2.8-8.4 20.5-36.5 20-36.5s-7 2.5-7 2.5c-4.5 4-17.692 18.5-20 28.5-1.2 5.2-0.5 17.833 0 23.5h4.5c0-3.667-0.3-9.6 2.5-18z" fill="#000" stroke="#000"/>
<path d="m332.5 460.5c1 6 0 11.667 0 14h-8.5c1-6-0.214-19.964-1-23.5-1-4.5-4.167-12.833-6-17l8 0.5c1.167 3.167 3.7 10 4.5 12 1 2.5 2 8 3 14z" fill="#000" stroke="#000"/>
<path d="m308.56 456.5c0.944 8 0 15.667 0 18h-10.556c1-6 2.611-13 0.5-22.5-1-4.5-5.667-13.833-7.5-18h10c2.445 2.5 3.7 7 4.5 9 1 2.5 2.111 5.5 3.056 13.5z" fill="#000" stroke="#000"/>
<path d="m344 441.5 1 61h-4.5l-1.5-61h5z" fill="#000" stroke="#000"/>
<path d="m403.5 468.5 8 0.5c-8.5 11.5-23 19.5-28.5 23-9.428 6-26 12-30.5 13-1.746 0.388-8.667 1.333-12 1.5v-5.5c19-2 28.5-8 37.5-12.5 6-3 16.5-11.5 25.5-20z" fill="#000" stroke="#000"/>
<path d="m403.5 467.5 8-0.5c-2.5-11-11.5-18.5-19-23-10.833-6.5-32.5-9-53.5-7v4.122c15 0 26.544 3.939 36 7.378 9 3.273 22.5 12.5 28.5 19z" fill="#000" stroke="#000"/>
<circle transform="rotate(180 372 474.5)" cx="372" cy="474.5" r="5" fill="#000"/>
<path d="m373.5 483c-0.667 0.5-2.7 1.6-5.5 2" stroke="#000"/>
<path d="m191 476 11-12.5 110.5 8.5 28 1v5.5l-149.5-2.5z" fill="#000" stroke="#000"/>
<path d="m110 478.5 16.5-7.5" stroke="#000"/>
<path d="m133.5 442-10.5-9.5v-0.5l24 19-13.5-9z" fill="#000" stroke="#000"/>
<path d="m134 458.5-16.5-17.5" stroke="#000"/>
<path d="m50.5 167 13-15.5" stroke="#000"/>
<path d="m54.5 193 16-16.5" stroke="#000"/>
<path d="m75.5 148.5 10.5-11-9 12-4 7.5-8.5 12.5 11-21z" fill="#000" stroke="#000"/>
<path d="m51 189 9.5-13" stroke="#000"/>
<path d="m82.5 165 2-6.5-12 16 10-9.5z" fill="#000"/>
<path d="m50.5 117c-1.6 2.4-3.3333 7.333-4 9.5l2 1 4-9 5.5-5.5 7.5 1-10.5 13.5 15-12.5s4.5 1.5 4 1-5.1-3.6-5.5-4-5.5-1.833-8-2.5c-2.6667 1.5-8.4 5.1-10 7.5z" fill="#000"/>
<path d="m82.5 165 2-6.5-12 16 10-9.5z" stroke="#000"/>
<path d="m50.5 117c-1.6 2.4-3.3333 7.333-4 9.5l2 1 4-9 5.5-5.5 7.5 1-10.5 13.5 15-12.5s4.5 1.5 4 1-5.1-3.6-5.5-4-5.5-1.833-8-2.5c-2.6667 1.5-8.4 5.1-10 7.5z" stroke="#000"/>
<path d="m32 125-10-15h2l3 3 5 12z" fill="#000" stroke="#000"/>
<path d="m23 146.5 4 6.5-14.5-34.5 10.5 28z" fill="#000" stroke="#000"/>
<path d="m44.5 183-10.5-22.5h2.5l8 22.5z" fill="#000" stroke="#000"/>
<path d="m26.5 159 4 25.5 2.5 2-6.5-27.5z" fill="#000"/>
<path d="m10 141 12 40.5-4.5-21-7.5-19.5z" fill="#000"/>
<path d="m26.5 159 4 25.5 2.5 2-6.5-27.5z" stroke="#000"/>
<path d="m10 141 12 40.5-4.5-21-7.5-19.5z" stroke="#000"/>
<path d="m9 137-5.5-8.5v-3.5l5.5 12z" fill="#000" stroke="#000"/>
<path d="m57.5 155.5c-2.4 3.6-8.6667 6.5-11.5 7.5l-1-3.5c2 0 5.9366-1.722 9-4 5.3803-4 4.5-11 2-17.5-2-5.2-10.167-10.667-13.5-12.5 3.3333 0.5 11 2.9 15 8.5 5 7 3 17 0 21.5z" fill="#000" stroke="#000"/>
<path d="m34.5 161c2.9538 2.068 9.3333 2.667 12 2v-3c-8.5-1.5-12.303-8.305-13.5-10.5-3-5.5-4-9.5-3.5-15 0.6156-6.772 6.6667-8.833 10-9h-4.5l-3.5 0.5c-2.8333 2.333-8.2 9.2-7 18 1.0909 8 5 13.5 10 17z" fill="#000" stroke="#000"/>
<path d="m11.989 110.94c-3.0369 1.717-5.9477 3.825-7.4894 5.058l-1.5 0.5c-0.92504 0.634-1.0945 0.82-1-0.5 0.33333-1 1.9-3.3 5.5-4.5 0.70183-0.234 2.3272-0.415 4.4894-0.558 1.8876-1.067 3.824-1.982 5.5106-2.442 4.4-1.2 12.5-2.167 16-2.5 0 0 5.5 3.5 5.5 4 0 0.403-18.082 0.351-27.011 0.942z" fill="#000"/>
<path d="m4.5 116c2.5-2 8.6-6.3 13-7.5s12.5-2.167 16-2.5c0 0 5.5 3.5 5.5 4s-27.9 0.3-31.5 1.5-5.1667 3.5-5.5 4.5c-0.09454 1.32 0.07496 1.134 1 0.5l1.5-0.5z" stroke="#000"/>
<path d="m45 176.5c-0.4 6-0.1667 16.167 0 19.5l4 5.5 0.5-40h-2.5c-0.5 3-1.6 9-2 15z" fill="#000" stroke="#000"/>
<path d="m60.5 201.5c0-0.036 0.0261-0.122 0.0768-0.254 0.3557-1.579 1.8704-9.587 2.9232-12.746 1.5-4.5 5.5-9.5 10-13 3.6-2.8 11.5-2.167 14-1-2-7-2.95-13-2.5-22 0.2197-4.394 1-17.5 2.5-28.5 0 0-10.5-6.5-11-7s5.7 0.3 8.5 1.5l10.5 4.5-1 62c-0.1667-0.333-1.6-1.3-6-2.5-5.5-1.5-8.5-1-16.5 4-5.9425 3.714-10.764 13.032-11.423 14.746-0.0497 0.22-0.0768 0.315-0.0768 0.254z" fill="#000"/>
<path d="m60.5 201.5c0-0.5 5.1-11 11.5-15 8-5 11-5.5 16.5-4 4.4 1.2 5.8333 2.167 6 2.5l1-62c-2.3333-1-7.7-3.3-10.5-4.5s-9-2-8.5-1.5 11 7 11 7c-1.5 11-2.2803 24.106-2.5 28.5-0.45 9 0.5 15 2.5 22-2.5-1.167-10.4-1.8-14 1-4.5 3.5-8.5 8.5-10 13-1.2 3.6-3 13.5-3 13z" stroke="#000"/>
<path d="m1 151c0 9.2 0.66667 26.167 1 33.5h7c-1.3333-9.333-3-5.5-4.5-33.5-0.23635-4.412 0-25 0-35l-2.5 0.5c-0.33333 8-1 25.3-1 34.5z" fill="#000" stroke="#000"/>
<path d="m20 189c8.4 2.8 36.5 20.5 36.5 20s-2.5-7-2.5-7c-4-4.5-18.5-17.692-28.5-20-5.2-1.2-17.833-0.5-23.5 0v4.5c3.6667 0 9.6-0.3 18 2.5z" fill="#000" stroke="#000"/>
<path d="m57 332.5c-6 1-11.667 0-14 0v-8.5c6 1 19.964-0.214 23.5-1 4.5-1 12.833-4.167 17-6l-0.5 8c-3.1667 1.167-10 3.7-12 4.5-2.5 1-8 2-14 3z" fill="#000" stroke="#000"/>
<path d="m61 308.56c-8 0.944-15.667 0-18 0v-10.556c6 1 13 2.611 22.5 0.5 4.5-1 13.833-5.667 18-7.5v10c-2.5 2.445-7 3.7-9 4.5-2.5 1-5.5 2.111-13.5 3.056z" fill="#000" stroke="#000"/>
<path d="m76 344-61 1v-4.5l61-1.5v5z" fill="#000" stroke="#000"/>
<path d="m49 403.5-0.5 8c-11.5-8.5-19.5-23-23-28.5-6-9.428-12-26-13-30.5-0.3881-1.746-1.3333-8.667-1.5-12h5.5c2 19 8 28.5 12.5 37.5 3 6 11.5 16.5 20 25.5z" fill="#000" stroke="#000"/>
<path d="m50 403.5 0.5 8c11-2.5 18.5-11.5 23-19 6.5-10.833 9-32.5 7-53.5h-4.1217c0 15-3.9396 26.544-7.3783 36-3.2727 9-12.5 22.5-19 28.5z" fill="#000" stroke="#000"/>
<circle transform="rotate(-90 43 372)" cx="43" cy="372" r="5" fill="#000"/>
<path d="m34.5 373.5c-0.5-0.667-1.6-2.7-2-5.5" stroke="#000"/>
<path d="m41.5 191 12.5 11-8.5 110.5-1 28h-5.5l2.5-149.5z" fill="#000" stroke="#000"/>
<path d="m39 110 7.5 16.5" stroke="#000"/>
<path d="m75.5 133.5 9.5-10.5h0.5l-19 24 9-13.5z" fill="#000" stroke="#000"/>
<path d="m59 134 17.5-16.5" stroke="#000"/>
<path d="m467 350.5-13 15.5" stroke="#000"/>
<path d="m463 324.5-16 16.5" stroke="#000"/>
<path d="m442 369-10.5 11 9-12 4-7.5 8.5-12.5-11 21z" fill="#000" stroke="#000"/>
<path d="m466.5 328.5-9.5 13" stroke="#000"/>
<path d="m435 352.5-2 6.5 12-16-10 9.5z" fill="#000"/>
<path d="m467 400.5c1.6-2.4 3.333-7.333 4-9.5l-2-1-4 9-5.5 5.5-7.5-1 10.5-13.5-15 12.5s-4.5-1.5-4-1 5.1 3.6 5.5 4 5.5 1.833 8 2.5c2.667-1.5 8.4-5.1 10-7.5z" fill="#000"/>
<path d="m435 352.5-2 6.5 12-16-10 9.5z" stroke="#000"/>
<path d="m467 400.5c1.6-2.4 3.333-7.333 4-9.5l-2-1-4 9-5.5 5.5-7.5-1 10.5-13.5-15 12.5s-4.5-1.5-4-1 5.1 3.6 5.5 4 5.5 1.833 8 2.5c2.667-1.5 8.4-5.1 10-7.5z" stroke="#000"/>
<path d="m485.5 392.5 10 15h-2l-3-3-5-12z" fill="#000" stroke="#000"/>
<path d="m494.5 371-4-6.5 14.5 34.5-10.5-28z" fill="#000" stroke="#000"/>
<path d="m473 334.5 10.5 22.5h-2.5l-8-22.5z" fill="#000" stroke="#000"/>
<path d="m491 358.5-4-25.5-2.5-2 6.5 27.5z" fill="#000"/>
<path d="m507.5 376.5-12-40.5 4.5 21 7.5 19.5z" fill="#000"/>
<path d="m491 358.5-4-25.5-2.5-2 6.5 27.5z" stroke="#000"/>
<path d="m507.5 376.5-12-40.5 4.5 21 7.5 19.5z" stroke="#000"/>
<path d="m508.5 380.5 5.5 8.5v3.5l-5.5-12z" fill="#000" stroke="#000"/>
<path d="m460 362c2.4-3.6 8.667-6.5 11.5-7.5l1 3.5c-2 0-5.937 1.723-9 4-5.38 4-4.5 11-2 17.5 2 5.2 10.167 10.667 13.5 12.5-3.333-0.5-11-2.9-15-8.5-5-7-3-17 0-21.5z" fill="#000" stroke="#000"/>
<path d="m483 356.5c-2.954-2.068-9.333-2.667-12-2v3c8.5 1.5 12.303 8.305 13.5 10.5 3 5.5 4 9.5 3.5 15-0.616 6.772-6.667 8.833-10 9h4.5l3.5-0.5c2.833-2.333 8.2-9.2 7-18-1.091-8-5-13.5-10-17z" fill="#000" stroke="#000"/>
<path d="m505.51 406.56c3.036-1.716 5.947-3.824 7.489-5.058l1.5-0.5c0.925-0.634 1.095-0.82 1 0.5-0.333 1-1.9 3.3-5.5 4.5-0.702 0.234-2.327 0.415-4.489 0.558-1.888 1.067-3.824 1.982-5.511 2.442-4.4 1.2-12.5 2.167-16 2.5 0 0-5.5-3.5-5.5-4 0-0.403 18.082-0.351 27.011-0.942z" fill="#000"/>
<path d="m513 401.5c-2.5 2-8.6 6.3-13 7.5s-12.5 2.167-16 2.5c0 0-5.5-3.5-5.5-4s27.9-0.3 31.5-1.5 5.167-3.5 5.5-4.5c0.095-1.32-0.075-1.134-1-0.5l-1.5 0.5z" stroke="#000"/>
<path d="m472.5 341c0.4-6 0.167-16.167 0-19.5l-4-5.5-0.5 40h2.5c0.5-3 1.6-9 2-15z" fill="#000" stroke="#000"/>
<path d="m457 316c0 0.036-0.026 0.123-0.077 0.254-0.355 1.579-1.87 9.587-2.923 12.746-1.5 4.5-5.5 9.5-10 13-3.6 2.8-11.5 2.167-14 1 2 7 2.95 13 2.5 22-0.22 4.394-1 17.5-2.5 28.5 0 0 10.5 6.5 11 7s-5.7-0.3-8.5-1.5l-10.5-4.5 1-62c0.167 0.333 1.6 1.3 6 2.5 5.5 1.5 8.5 1 16.5-4 5.943-3.714 10.764-13.032 11.423-14.746 0.05-0.22 0.077-0.315 0.077-0.254z" fill="#000"/>
<path d="m457 316c0 0.5-5.1 11-11.5 15-8 5-11 5.5-16.5 4-4.4-1.2-5.833-2.167-6-2.5l-1 62c2.333 1 7.7 3.3 10.5 4.5s9 2 8.5 1.5-11-7-11-7c1.5-11 2.28-24.106 2.5-28.5 0.45-9-0.5-15-2.5-22 2.5 1.167 10.4 1.8 14-1 4.5-3.5 8.5-8.5 10-13 1.2-3.6 3-13.5 3-13z" stroke="#000"/>
<path d="m516.5 366.5c0-9.2-0.667-26.167-1-33.5h-7c1.333 9.333 3 5.5 4.5 33.5 0.236 4.412 0 25 0 35l2.5-0.5c0.333-8 1-25.3 1-34.5z" fill="#000" stroke="#000"/>
<path d="m497.5 328.5c-8.4-2.8-36.5-20.5-36.5-20s2.5 7 2.5 7c4 4.5 18.5 17.692 28.5 20 5.2 1.2 17.833 0.5 23.5 0v-4.5c-3.667 0-9.6 0.3-18-2.5z" fill="#000" stroke="#000"/>
<path d="m460.5 185c6-1 11.667 0 14 0v8.5c-6-1-19.964 0.214-23.5 1-4.5 1-12.833 4.167-17 6l0.5-8c3.167-1.167 10-3.7 12-4.5 2.5-1 8-2 14-3z" fill="#000" stroke="#000"/>
<path d="m456.5 208.94c8-0.944 15.667 0 18 0v10.556c-6-1-13-2.611-22.5-0.5-4.5 1-13.833 5.667-18 7.5v-10c2.5-2.444 7-3.7 9-4.5 2.5-1 5.5-2.111 13.5-3.056z" fill="#000" stroke="#000"/>
<path d="m441.5 173.5 61-1v4.5l-61 1.5v-5z" fill="#000" stroke="#000"/>
<path d="m468.5 114 0.5-8c11.5 8.5 19.5 23 23 28.5 6 9.429 12 26 13 30.5 0.388 1.746 1.333 8.667 1.5 12h-5.5c-2-19-8-28.5-12.5-37.5-3-6-11.5-16.5-20-25.5z" fill="#000" stroke="#000"/>
<path d="m467.5 114-0.5-8c-11 2.5-18.5 11.5-23 19-6.5 10.833-9 32.5-7 53.5h4.122c0-15 3.939-26.544 7.378-36 3.273-9 12.5-22.5 19-28.5z" fill="#000" stroke="#000"/>
<circle transform="rotate(90 474.5 145.5)" cx="474.5" cy="145.5" r="5" fill="#000"/>
<path d="m483 144c0.5 0.667 1.6 2.7 2 5.5" stroke="#000"/>
<path d="m476 326.5-12.5-11 8.5-110.5 1-28h5.5l-2.5 149.5z" fill="#000" stroke="#000"/>
<path d="M478.5 407.5L471 391" stroke="#000"/>
<path d="m442 384-9.5 10.5h-0.5l19-24-9 13.5z" fill="#000" stroke="#000"/>
<path d="M458.5 383.5L441 400" stroke="#000"/>
</svg>
